<?xml version="1.0" encoding="UTF-8"?>
<svg id="logosandtypes_com" data-name="logosandtypes com" xmlns="http://www.w3.org/2000/svg" viewBox="0 0 150 150">
  <defs>
    <style>
      .cls-1 {
        fill: #479d18;
      }

      .cls-2 {
        fill: #135c0a;
      }

      .cls-3 {
        fill: none;
      }
    </style>
  </defs>
  <g id="Layer_3" data-name="Layer 3">
    <g id="Layer_2" data-name="Layer 2">
      <path id="Layer_3-2" data-name="Layer 3-2" class="cls-3" d="M0,0H150V150H0V0Z"/>
    </g>
  </g>
  <g>
    <path class="cls-1" d="M127.84,108.96c9.42-46.04-35.9-75.02-77.03-75.33-.01,.07,16.19,5.05,23.9,8.56,15.7,6.98,29.81,18.18,38.83,32.93-8.65,.34-32.32,.4-35.52,.57-5.86,.2-11.73-.37-17.39-1.91C34.18,66.87,14.4,41.81,14.75,14.34c21.19-.13,42.39-.04,63.58-.04,3.6,.06,7.15,.56,10.67,1.29,15.42,3.23,29.34,12.7,38.16,25.73,13.77,19.83,14.17,47.55,.81,67.69-.04-.02-.09-.04-.13-.05Z"/>
    <path class="cls-2" d="M14.68,137.38V51.43c5.7,9.01,12.91,16.55,21.83,22.55v41.46c10.71,.17,36.34,.03,38.45,.07,4.72,.09,9.23-.91,13.55-2.73,10.41-4.47,19.7-12.39,24.22-22.94,1.81-4.41,2.43-8.93,1.39-13.63-.02-.07,0-.15,.1-.28,11.03,18.53,8.38,43.59-11.28,55.01-4.6,2.76-9.61,4.44-14.87,5.42-3.62,.68-7.28,1.02-10.96,1.02-20.81,0-41.61,0-62.42,0Z"/>
  </g>
</svg>