<?xml version="1.0" encoding="utf-8" standalone="no"?>
<!DOCTYPE svg PUBLIC "-//W3C//DTD SVG 1.1//EN"
  "http://www.w3.org/Graphics/SVG/1.1/DTD/svg11.dtd">
<svg xmlns:xlink="http://www.w3.org/1999/xlink" width="432pt" height="432pt" viewBox="0 0 432 432" xmlns="http://www.w3.org/2000/svg" version="1.1">
 <metadata>
  <rdf:RDF xmlns:dc="http://purl.org/dc/elements/1.1/" xmlns:cc="http://creativecommons.org/ns#" xmlns:rdf="http://www.w3.org/1999/02/22-rdf-syntax-ns#">
   <cc:Work>
    <dc:type rdf:resource="http://purl.org/dc/dcmitype/StillImage"/>
    <dc:date>2024-08-28T14:57:56.212994</dc:date>
    <dc:format>image/svg+xml</dc:format>
    <dc:creator>
     <cc:Agent>
      <dc:title>Matplotlib v3.9.2, https://matplotlib.org/</dc:title>
     </cc:Agent>
    </dc:creator>
   </cc:Work>
  </rdf:RDF>
 </metadata>
 <defs>
  <style type="text/css">*{stroke-linejoin: round; stroke-linecap: butt}</style>
 </defs>
 <g id="figure_1">
  <g id="patch_1">
   <path d="M 0 432 
L 432 432 
L 432 0 
L 0 0 
L 0 432 
z
" style="fill: none"/>
  </g>
  <g id="axes_1">
   <g id="patch_2">
    <path d="M 54 384.48 
L 388.8 384.48 
L 388.8 51.84 
L 54 51.84 
L 54 384.48 
z
" style="fill: none"/>
   </g>
   <g id="PathCollection_1">
    <defs>
     <path id="m2848672f69" d="M 0 11.18034 
C 2.965061 11.18034 5.80908 10.002309 7.905694 7.905694 
C 10.002309 5.80908 11.18034 2.965061 11.18034 0 
C 11.18034 -2.965061 10.002309 -5.80908 7.905694 -7.905694 
C 5.80908 -10.002309 2.965061 -11.18034 0 -11.18034 
C -2.965061 -11.18034 -5.80908 -10.002309 -7.905694 -7.905694 
C -10.002309 -5.80908 -11.18034 -2.965061 -11.18034 0 
C -11.18034 2.965061 -10.002309 5.80908 -7.905694 7.905694 
C -5.80908 10.002309 -2.965061 11.18034 0 11.18034 
z
" style="stroke: #000000"/>
    </defs>
    <g clip-path="url(#p8da92783d4)">
     <use xlink:href="#m2848672f69" x="236.1312" y="287.34912" style="stroke: #000000"/>
    </g>
   </g>
   <g id="matplotlib.axis_1">
    <g id="xtick_1"/>
    <g id="xtick_2"/>
    <g id="xtick_3"/>
    <g id="xtick_4"/>
    <g id="xtick_5"/>
    <g id="xtick_6"/>
    <g id="xtick_7"/>
   </g>
   <g id="matplotlib.axis_2">
    <g id="ytick_1"/>
    <g id="ytick_2"/>
    <g id="ytick_3"/>
    <g id="ytick_4"/>
    <g id="ytick_5"/>
    <g id="ytick_6"/>
   </g>
   <g id="line2d_1">
    <path d="M 39.498235 433 
L 41.986076 399.719705 
L 45.203373 360.080292 
L 48.42067 324.028203 
L 51.637968 291.377487 
L 54.855265 261.947741 
L 57.00013 244.030734 
L 59.144995 227.416922 
L 61.289859 212.056871 
L 63.434724 197.902194 
L 65.579589 184.905541 
L 67.724454 173.02059 
L 69.869319 162.202037 
L 72.014184 152.405586 
L 74.159049 143.587938 
L 76.303914 135.706786 
L 78.448778 128.720796 
L 80.593643 122.589608 
L 82.738508 117.273816 
L 84.883373 112.734967 
L 87.028238 108.935543 
L 89.173103 105.838959 
L 91.317968 103.409547 
L 92.3904 102.434133 
L 93.462832 101.612549 
L 94.535265 100.940589 
L 95.607697 100.414106 
L 96.68013 100.029005 
L 97.752562 99.781249 
L 98.824995 99.666854 
L 99.897427 99.681891 
L 100.969859 99.822483 
L 102.042292 100.084811 
L 104.187157 100.959651 
L 106.332022 102.276902 
L 108.476886 104.007897 
L 110.621751 106.124798 
L 112.766616 108.600588 
L 114.911481 111.409061 
L 117.056346 114.524812 
L 120.273643 119.720957 
L 123.490941 125.473492 
L 126.708238 131.706513 
L 130.997968 140.64055 
L 135.287697 150.140411 
L 140.649859 162.584777 
L 149.229319 183.195418 
L 159.953643 208.918186 
L 166.388238 223.743107 
L 171.7504 235.506018 
L 176.04013 244.435812 
L 180.329859 252.877367 
L 184.619589 260.78297 
L 188.909319 268.112761 
L 192.126616 273.212502 
L 195.343914 277.959052 
L 198.561211 282.343656 
L 201.778508 286.359694 
L 204.995805 290.002605 
L 208.213103 293.269811 
L 211.4304 296.160641 
L 214.647697 298.676261 
L 217.864995 300.819593 
L 221.082292 302.595246 
L 224.299589 304.009437 
L 227.516886 305.069916 
L 230.734184 305.785895 
L 233.951481 306.16797 
L 237.168778 306.228045 
L 240.386076 305.979261 
L 243.603373 305.435918 
L 246.82067 304.613403 
L 250.037968 303.528111 
L 253.255265 302.197373 
L 256.472562 300.639381 
L 259.689859 298.873114 
L 263.979589 296.22823 
L 268.269319 293.296547 
L 273.631481 289.305075 
L 280.066076 284.169293 
L 292.935265 273.452764 
L 300.442292 267.392285 
L 305.804454 263.348925 
L 310.094184 260.363259 
L 314.383914 257.653294 
L 317.601211 255.830925 
L 320.818508 254.210575 
L 324.035805 252.811213 
L 327.253103 251.651024 
L 330.4704 250.747329 
L 333.687697 250.116516 
L 336.904995 249.77396 
L 340.122292 249.733949 
L 343.339589 250.009612 
L 346.556886 250.612841 
L 349.774184 251.554219 
L 352.991481 252.842943 
L 356.208778 254.486748 
L 359.426076 256.491836 
L 362.643373 258.862799 
L 365.86067 261.602542 
L 369.077968 264.712211 
L 372.295265 268.19112 
L 375.512562 272.036669 
L 378.729859 276.244278 
L 381.947157 280.807304 
L 385.164454 285.716973 
L 388.381751 290.962301 
L 392.671481 298.454934 
L 396.961211 306.482425 
L 401.250941 314.998996 
L 406.613103 326.249625 
L 411.975265 338.055915 
L 419.482292 355.237477 
L 433 386.624355 
L 433 386.624355 
" clip-path="url(#p8da92783d4)" style="fill: none; stroke: #000000; stroke-width: 15; stroke-linecap: square"/>
   </g>
   <g id="patch_3">
    <path d="M 54 384.48 
L 54 51.84 
" style="fill: none; stroke: #000000; stroke-width: 15; stroke-linejoin: miter; stroke-linecap: square"/>
   </g>
   <g id="patch_4">
    <path d="M 388.8 384.48 
L 388.8 51.84 
" style="fill: none; stroke: #000000; stroke-width: 15; stroke-linejoin: miter; stroke-linecap: square"/>
   </g>
   <g id="patch_5">
    <path d="M 54 384.48 
L 388.8 384.48 
" style="fill: none; stroke: #000000; stroke-width: 15; stroke-linejoin: miter; stroke-linecap: square"/>
   </g>
   <g id="patch_6">
    <path d="M 54 51.84 
L 388.8 51.84 
" style="fill: none; stroke: #000000; stroke-width: 15; stroke-linejoin: miter; stroke-linecap: square"/>
   </g>
  </g>
 </g>
 <defs>
  <clipPath id="p8da92783d4">
   <rect x="54" y="51.84" width="334.8" height="332.64"/>
  </clipPath>
 </defs>
</svg>
