<?xml version="1.0" encoding="UTF-8" standalone="no"?>
<svg
   width="2232pt"
   height="1108.8pt"
   viewBox="0 0 2232 1108.8"
   version="1.1"
   id="svg2"
   xmlns="http://www.w3.org/2000/svg"
   xmlns:svg="http://www.w3.org/2000/svg"
   xmlns:rdf="http://www.w3.org/1999/02/22-rdf-syntax-ns#"
   xmlns:cc="http://creativecommons.org/ns#"
   xmlns:dc="http://purl.org/dc/elements/1.1/">
  <metadata
     id="metadata1">
    <rdf:RDF>
      <cc:Work>
        <dc:type
           rdf:resource="http://purl.org/dc/dcmitype/StillImage" />
        <dc:date>2024-08-29T20:09:50.126037</dc:date>
        <dc:format>image/svg+xml</dc:format>
        <dc:creator>
          <cc:Agent>
            <dc:title>Matplotlib v3.9.2, https://matplotlib.org/</dc:title>
          </cc:Agent>
        </dc:creator>
      </cc:Work>
    </rdf:RDF>
  </metadata>
  <defs
     id="defs1">
    <style
       type="text/css"
       id="style1">*{stroke-linejoin: round; stroke-linecap: butt}</style>
  </defs>
  <g
     id="figure_1"
     transform="matrix(1.1003567,0,0,1.0459707,-112.0041,-0.29812081)">
    <g
       id="patch_1">
      <path
         d="M 0,1108.8 H 2232 V 0 H 0 Z"
         style="fill:none"
         id="path1" />
    </g>
    <g
       id="axes_1"
       transform="matrix(1.0000217,0,0,0.91457276,-0.02416118,-44.366251)">
      <g
         id="line2d_1">
        <path
           d="m 2130.5455,995.42937 -1.1929,-29.60559 -1.1929,4.6993 -1.1929,7.04895 -1.1929,-29.13567 h -1.1929 l -1.1928,46.05315 -1.1929,0.93986 -1.1929,-4.22937 -1.1929,-26.31608 -1.1929,28.1958 -1.1928,-18.7972 -1.1929,23.96643 -1.1929,-22.55664 -1.1929,12.68811 -1.1929,-9.86853 -1.1928,21.61681 -1.1929,15.0377 -1.1929,0.9399 -1.1929,-6.579 -1.1929,-8.9287 -1.1929,8.9287 -1.1928,-5.1693 -1.1929,2.8196 -1.1929,-16.91746 -1.1929,17.38746 -1.1929,-23.49655 -1.1928,-14.56783 -1.1929,1.40979 -1.1929,20.20699 -1.1929,-2.34965 -1.1929,-1.40979 -1.1928,-12.21818 -1.1929,16.44755 -1.1929,7.98881 h -1.1929 l -1.1929,-3.75944 -1.1929,-1.87972 -1.1928,7.98882 -1.1929,-24.9063 -1.1929,20.67692 -1.1929,5.16928 -1.1929,-16.91753 -1.1928,-8.45874 -1.1929,13.62797 -1.1929,20.207 -1.1929,7.5189 -1.1929,-31.01541 -1.1928,19.73711 -1.1929,-15.97767 -1.1929,-0.46993 -1.1929,-2.34965 -1.1929,15.03775 -1.1928,-3.7594 -1.1929,-18.3273 -1.1929,15.97762 -1.1929,-52.16224 -1.1929,-27.25594 -1.1929,-45.58322 -1.1928,98.21539 -1.1929,-5.63916 -1.1929,-41.82378 -1.1929,-76.12867 -1.1929,51.69231 -1.1928,-37.12448 -1.1929,76.12867 -1.1929,-3.28951 -1.1929,12.68811 -1.1929,-2.81958 -1.1928,-155.07692 -1.1929,93.04615 -1.1929,54.04196 -1.1929,-10.33846 -1.1929,41.82378 -1.1929,-4.22937 -1.1928,-37.12448 -1.1929,-24.90629 -1.1929,61.09091 -1.1929,-49.34266 -1.1929,31.48531 -1.1928,12.21819 -1.1929,-19.26714 -1.1929,7.04895 -1.1929,-29.60559 -1.1929,29.60559 -1.1928,-14.0979 -1.1929,6.57902 -1.1929,31.48532 -1.1929,1.40979 -1.1929,-28.19581 -1.1929,-71.8993 -1.1928,-0.93986 -1.1929,78.94825 -1.1929,-29.60559 -1.1929,9.3986 -1.1929,-15.50769 -1.1928,13.62797 -1.1929,-40.88392 -1.1929,-63.91048 -1.1929,15.97762 -1.1929,-34.3049 -1.1928,-1.40979 -1.1929,60.15105 -1.1929,42.76364 -1.1929,-9.3986 -1.1929,1.87972 -1.1929,50.75244 -1.1928,-21.14685 -1.1929,-6.57902 -1.1929,36.18461 -1.1929,-26.31608 -1.1929,-7.04895 -1.1928,-2.34965 -1.1929,-15.97762 -1.1929,-24.43637 -1.1929,26.31609 -1.1929,41.35384 -1.1928,-40.41398 -1.1929,55.92168 -1.1929,-33.83497 -1.1929,7.98881 -1.1929,15.50769 -1.1929,-21.61678 -1.1928,0.93986 -1.1929,16.91748 -1.1929,-24.90629 -1.1929,1.40979 -1.1929,2.81958 -1.1928,-9.86853 -1.1929,6.57902 -1.1929,1.87972 -1.1929,5.63916 -1.1929,18.7972 -1.1928,-40.88391 -1.1929,2.34965 -1.1929,20.67692 -1.1929,5.63916 -1.1929,10.80839 -1.1928,-25.84615 -1.1929,12.68811 -1.1929,1.87972 -1.1929,-15.03776 -1.1929,-1.40979 -1.1929,30.54545 -1.1928,-30.54545 -1.1929,2.81958 -1.1929,-26.31608 -1.1929,-37.59441 -1.1929,23.02657 -1.1928,8.92868 -1.1929,-35.71469 -1.1929,-62.97063 -1.1929,-53.1021 -1.1929,-375.94405 -1.1928,-315.32308 -1.1929,828.01678 -1.1929,-15.50769 -1.1929,32.42518 -1.1929,25.84615 -1.1929,-46.52308 -1.1928,-25.37622 -1.1929,18.32727 -1.1929,-2.81958 -1.1929,-12.21818 -1.1929,4.22937 -1.1928,46.52308 -1.1929,-11.27833 -1.1929,-24.43636 -1.1929,25.84616 -1.1929,-0.46994 -1.1928,-33.36503 -1.1929,-42.76364 -1.1929,-66.26014 -1.1929,89.75665 -1.1929,-111.37343 -1.1929,93.98601 -1.1928,83.17763 -1.1929,15.50769 -1.1929,-47.93287 -1.1929,-2.34965 -1.1929,-191.73147 -1.1928,226.97623 -1.1929,-36.65455 -1.1929,86.46713 -1.1929,4.22937 -1.1929,-35.24475 -1.1928,12.68811 -1.1929,-15.97762 -1.1929,-47.46294 -1.1929,52.63217 -1.1929,-12.21818 -1.1929,-284.77762 -1.1928,133.93007 -1.1929,15.03776 -1.1929,184.68252 -1.1929,44.17344 -1.1929,-0.9399 -1.1928,-18.32725 -1.1929,6.10909 -1.1929,-15.03776 -1.1929,27.25592 -1.1929,-33.83494 -1.1928,8.92867 -1.1929,4.6993 -1.1929,3.28951 -1.1929,24.90626 -1.1929,5.6392 -1.1929,-11.2783 -1.1928,2.8196 -1.1929,1.4097 -1.1929,6.5791 -1.1929,-15.9777 -1.1929,11.7483 -1.1928,-6.1091 -1.1929,0.9399 -1.1929,3.2895 -1.1929,16.9175 -1.1929,-0.47 -1.1928,-24.4363 -1.1929,-7.51892 -1.1929,-10.33846 -1.1929,28.66578 h -1.1929 l -1.1929,-11.2784 -1.1928,-7.51885 -1.1929,-33.83496 -1.1929,35.71471 -1.1929,16.4475 -1.1929,-7.0489 -1.1928,-1.8797 -1.1929,-0.9399 -1.1929,12.2182 -1.1929,-7.5189 -1.1929,0.4699 -1.1928,-7.5189 -1.1929,13.628 -1.1929,-34.30488 -1.1929,24.90628 -1.1929,-1.4098 -1.1929,-9.86851 -1.1928,-37.12448 -1.1929,55.45179 -1.1929,-7.9888 -1.1929,5.6391 -1.1929,-14.56782 -1.1928,10.33842 -1.1929,-12.68807 -1.1929,15.97767 -1.1929,-15.50774 -1.1929,2.81958 -1.1928,-0.46993 -1.1929,-29.13566 -1.1929,22.55664 -1.1929,-5.63916 -1.1929,17.38737 -1.1928,11.7483 -2.3858,-49.34266 -1.1929,-22.08672 -1.1929,54.04196 -1.1929,-11.27832 -2.3857,27.72584 -1.1929,-14.5678 -1.1929,7.049 -1.1929,-20.20704 -1.1928,3.75944 -1.1929,-53.1021 -1.1929,-1.40979 -1.1929,13.62797 -1.1929,24.9063 -1.1928,-49.81259 -1.1929,-16.91748 -1.1929,79.41818 -1.1929,-5.16923 -1.1929,66.73004 -1.1929,-53.10207 -1.1928,-34.30489 -1.1929,-11.74826 -1.1929,-49.81258 -1.1929,23.4965 -1.1929,15.50769 -1.1928,-130.17063 -1.1929,70.95944 -1.1929,113.25315 -1.1929,-60.15105 -1.1929,23.4965 -1.1928,-40.88391 -1.1929,-10.33846 -1.1929,31.01538 -1.1929,-22.08671 -1.1929,31.48531 -1.1929,-85.9972 -1.1928,61.09091 -1.1929,5.16923 -1.1929,24.90629 -1.1929,-27.25594 -1.1929,46.52308 -1.1928,-12.21819 -1.1929,-9.3986 -1.1929,-5.63916 -1.1929,-8.92867 -1.1929,2.81958 -1.1928,-15.03776 -1.1929,-49.81259 -1.1929,-42.76363 -1.1929,139.0993 -1.1929,7.04895 -1.1929,-11.74825 -1.1928,-15.03777 -1.1929,20.207 -1.1929,26.31608 -1.1929,-0.93986 -1.1929,-5.16923 -1.1928,-20.67692 -1.1929,-3.75944 -1.1929,20.67692 -1.1929,-1.87972 -1.1929,-2.34965 -1.1928,26.78603 -1.1929,-39.47414 -1.1929,9.3986 -1.1929,-15.97762 -1.1929,-10.33847 -1.1929,39.94406 -1.1928,35.71467 -1.1929,8.4588 -1.1929,0.4699 -1.1929,-4.6993 -1.1929,-7.049 -1.1928,2.8196 -1.1929,-8.9287 -1.1929,0.47 -1.1929,15.0377 -1.1929,0.9399 -1.1928,-0.9399 -1.1929,-43.70346 -1.1929,-23.96643 -1.1929,2.81958 -1.1929,22.08671 -1.1929,15.0378 -1.1928,-8.92871 -1.1929,14.09791 h -1.1929 l -1.1929,-5.6392 -1.1929,7.049 -1.1928,3.2895 -1.1929,7.9888 -1.1929,-8.9287 -1.1929,0.47 -1.1929,-15.0378 -1.1928,-38.53426 -1.1929,61.56086 -1.1929,2.8196 -1.1929,8.9286 -1.1929,-12.2182 -1.1928,8.9287 -1.1929,-21.6168 -1.1929,-13.15801 -1.1929,5.16921 -1.1929,8.4588 -1.1929,4.2293 h -1.1928 l -1.1929,-14.0979 -1.1929,8.4588 -1.1929,15.5077 -1.1929,-8.9287 -1.1928,6.1091 h -1.1929 l -1.1929,-17.3874 -1.1929,-15.03779 -2.3857,38.53429 -1.1929,-13.628 -1.1929,4.6993 -1.1929,13.158 -1.1929,-11.7482 -1.1929,-7.5189 -1.1928,-4.6993 -1.1929,-1.4098 -1.1929,-15.03774 -1.1929,32.89514 -1.1929,12.6881 -1.1928,-1.4098 -1.1929,2.3496 -1.1929,-0.4699 -1.1929,15.9776 -1.1929,-18.3272 -1.1928,-10.3385 -1.1929,10.8084 -1.1929,-21.6168 -1.1929,-4.2294 -1.1929,3.2895 -1.1929,21.6168 -1.1928,-2.3496 -1.1929,-4.6993 -1.1929,11.2783 -1.1929,-2.3497 -1.1929,-11.7482 -1.1928,10.8084 -1.1929,-13.628 -1.1929,-10.3384 -1.1929,25.8461 -1.1929,4.6993 -1.1928,-2.8196 -1.1929,-11.2783 -1.1929,-22.5566 -1.1929,-6.1091 -1.1929,16.4475 -1.1929,-20.6769 -1.1928,17.3874 -1.1929,-27.72586 -1.1929,-11.27832 -1.1929,43.23358 -1.1929,-49.8126 -1.1928,21.14685 -1.1929,23.96645 -1.1929,-93.04617 -1.1929,-15.03776 -1.1929,121.71193 -1.1928,11.2783 -1.1929,-31.4853 -1.1929,3.7594 -1.1929,17.8573 -1.1929,-19.737 -1.1929,9.3986 -1.1928,-3.2895 -1.1929,-17.85737 -1.1929,8.45877 -1.1929,-0.9399 -1.1929,3.2895 -1.1928,11.2783 -1.1929,-25.37618 -1.1929,-20.20699 -1.1929,24.90629 -1.1929,-48.4028 -1.1928,23.02658 -1.1929,17.38741 -1.1929,-19.26713 -1.1929,-66.73007 -1.1929,90.6965 -1.1929,23.96639 -1.1928,-31.9552 -1.1929,19.7371 -1.1929,-7.98885 -1.1929,-4.6993 -1.1929,13.15805 -1.1928,4.6993 -1.1929,-7.9888 -1.1929,-15.03778 -1.1929,-33.36503 -1.1929,10.33846 -1.1928,-10.8084 -1.1929,-200.19021 -1.1929,93.51609 -1.1929,74.24895 -1.1929,-50.28252 -1.1929,139.56924 -1.1928,-15.03777 -1.1929,-72.83916 -2.3858,71.42937 h -1.1929 l -1.1928,24.90626 -1.1929,-4.6993 -1.1929,-9.8685 -1.1929,-16.91748 -1.1929,-12.21818 -1.1928,35.24476 -1.1929,5.1692 -1.1929,1.8797 -1.1929,-1.8797 -1.1929,0.9399 -1.1928,-0.9399 -1.1929,-9.8685 -1.1929,-23.02658 -1.1929,-7.51888 -1.1929,-14.0979 -1.1929,37.12447 -1.1928,30.07549 -1.1929,-0.9398 -1.1929,-15.9776 -1.1929,20.6769 -2.3857,-24.9063 -1.1929,-8.45876 -1.1929,-9.3986 -1.1929,15.03776 -1.1929,-9.3986 -1.1928,30.0755 -1.1929,-34.30487 -1.1929,0.93986 -1.1929,-19.26713 -1.1929,25.84615 -1.1929,-4.22937 -1.1928,-23.4965 -1.1929,-11.74825 -1.1929,33.36503 -1.1929,-45.11329 -1.1929,15.97763 -1.1928,25.37622 -1.1929,-12.21818 -1.1929,-73.77902 -1.1929,74.71888 -1.1929,25.84614 -1.1928,-42.76362 -1.1929,30.54545 -1.1929,10.80837 -1.1929,-37.59438 -1.1929,42.29368 -1.1929,-23.96641 -1.1928,29.60561 -1.1929,4.6993 -1.1929,0.9398 -1.1929,-7.9888 -1.1929,-34.77479 -1.1928,27.72589 -1.1929,-1.4098 -1.1929,0.9399 -1.1929,-11.27837 -1.1929,-24.90629 -1.1928,24.43636 -1.1929,15.5077 -2.3858,-21.14686 -1.1929,-0.93986 -1.1929,-36.65455 -1.1928,-92.10629 -1.1929,-36.65455 -1.1929,-234.96503 -1.1929,310.15385 -1.1929,57.33146 -1.1928,-199.72028 -1.1929,103.38462 -1.1929,75.65874 -1.1929,28.19581 -1.1929,-29.13567 -1.1928,2.81958 -1.1929,-3.28951 -1.1929,-8.45874 -1.1929,-87.40699 -1.1929,106.20419 -1.1929,-15.97762 -1.1928,19.73706 -1.1929,-48.87272 -1.1929,-86.46714 -1.1929,155.54686 -1.1929,-40.88392 -1.1928,-176.22378 -1.1929,181.86294 -1.1929,6.57902 -1.1929,-40.41398 -1.1929,31.48531 -1.1928,-30.54545 -1.1929,-12.21819 -1.1929,92.1063 -1.1929,-21.14686 -1.1929,5.16924 -1.1929,-18.79721 -1.1928,-12.68811 -1.1929,30.07552 -1.1929,-74.71888 -1.1929,63.91049 -1.1929,-3.28951 -1.1928,11.74825 -1.1929,-9.3986 -1.1929,-98.68531 -1.1929,6.10909 -1.1929,-434.21539 -1.1928,234.49511 -1.1929,89.75664 -1.1929,119.83217 -1.1929,57.33147 -1.1929,-24.43636 -1.1928,10.80839 -1.1929,20.20699 -1.1929,-60.15105 -1.1929,24.43636 -1.1929,-2.81957 -1.1929,-46.99301 -1.1928,54.04196 h -1.1929 l -1.1929,-136.27972 -1.1929,-83.64756 -1.1929,157.89651 -1.1928,-185.15245 -1.1929,250.47273 -1.1929,-7.98881 -1.1929,-42.76364 -1.1929,-306.39441 -1.1928,232.14546 -1.1929,165.41538 -1.1929,-41.35384 -1.1929,-91.63637 -1.1929,22.55665 -1.1929,13.62797 -1.1928,-57.33147 -1.1929,84.58741 -1.1929,-231.67552 -1.1929,187.50209 -1.1929,6.57903 -1.1928,58.74126 -1.1929,39.94405 -1.1929,49.81259 -1.1929,7.98881 -1.1929,5.63916 -1.1928,-11.74825 -1.1929,-5.63916 -1.1929,-53.57203 -1.1929,-13.15804 -1.1929,-17.38741 -2.3857,95.86573 -1.1929,-8.92867 -1.1929,11.27832 -1.1929,-80.82797 -1.1929,-3.75944 -1.1928,14.0979 -1.1929,48.87273 -1.1929,32.42515 -1.1929,-15.50767 -1.1929,-74.24895 -1.1928,30.54545 -1.1929,-42.76363 -1.1929,-27.25595 -1.1929,-126.88112 -1.1929,166.82518 -1.1929,74.24895 -1.1928,-174.34406 -1.1929,140.03916 -1.1929,53.10214 -1.1929,-23.96647 -1.1929,-6.10909 -1.1928,21.61678 -1.1929,13.15808 -1.1929,-1.8798 -1.1929,-1.4097 -1.1929,3.7594 -1.1928,-19.26714 -1.1929,-31.95525 -1.1929,45.11329 -1.1929,3.7594 -1.1929,-1.8797 -1.1929,6.579 -1.1928,4.2294 -1.1929,0.9399 -1.1929,-18.7972 -1.1929,13.158 -1.1929,7.049 -1.1928,-10.3385 -1.1929,-0.4699 -1.1929,6.579 -1.1929,-42.29371 -1.1929,15.97762 -1.1928,26.78599 -1.1929,6.579 -1.1929,-7.9888 -1.1929,-3.2895 -1.1929,-17.38739 -1.1929,-45.58322 -1.1928,13.62798 -1.1929,-6.1091 -2.3858,-148.4979 -1.1929,-15.03776 -1.1928,195.49091 -1.1929,13.62798 -1.1929,1.4098 -1.1929,9.8685 -1.1929,-10.8084 -1.1928,-48.40278 -1.1929,-37.5944 -1.1929,91.16648 -1.1929,-7.5189 -1.1929,7.9888 -1.1929,-4.6993 -1.1928,0.4699 -1.1929,-50.75244 -1.1929,-9.3986 -1.1929,-25.37622 -1.1929,-160.71608 -1.1928,220.86713 -1.1929,9.3986 -1.1929,11.27832 -1.1929,-1.87972 -1.1929,-12.21818 -1.1928,-1.87972 -1.1929,14.56783 -1.1929,-23.4965 -1.1929,15.03776 -1.1929,7.04895 -1.1928,-19.73706 -1.1929,-8.45874 -1.1929,36.65457 -1.1929,-7.04898 -1.1929,-31.48531 -1.1929,27.72587 -1.1928,-1.87972 -1.1929,0.93986 -1.1929,-7.98881 -1.1929,-7.04895 -1.1929,-10.80839 -1.1928,-102.44476 -1.1929,99.62518 -2.3858,-17.38742 -1.1929,24.9063 -1.1928,-3.75944 -1.1929,-23.96644 -1.1929,28.66574 -1.1929,24.90629 -1.1929,-0.93986 -1.1929,-39.47412 -1.1928,31.01538 -1.1929,-8.45874 -1.1929,3.75944 -1.1929,-20.67692 -1.1929,37.1245 -1.1928,-53.57206 -1.1929,17.38742 -1.1929,-5.16924 -1.1929,-89.28671 -1.1929,109.02378 -1.1928,23.49651 -1.1929,17.8573 -1.1929,0.9399 -1.1929,-38.06434 -1.1929,-3.75944 -1.1929,37.12448 -1.1928,-42.29371 -1.1929,-2.81958 -1.1929,34.30489 -1.1929,16.4476 -1.1929,-12.6882 -1.1928,-9.86849 -1.1929,7.51889 -1.1929,-18.32728 -1.1929,5.63916 -1.1929,20.20702 -1.1928,0.9398 -1.1929,-23.02654 -1.1929,12.68814 -1.1929,-1.4098 -1.1929,-16.9175 -1.1929,8.92867 -1.1928,5.16923 -1.1929,16.9175 -1.1929,-32.89512 -1.1929,4.6993 -1.1929,-23.4965 -1.1928,-71.42937 -1.1929,68.60979 -1.1929,36.65454 -1.1929,-13.62797 -1.1929,-1.87972 -1.1928,-18.7972 -1.1929,17.85734 -1.1929,12.21818 -1.1929,-16.44755 -1.1929,15.03776 -1.1929,-26.31608 -1.1928,-7.98881 -1.1929,28.66573 -1.1929,-4.6993 -1.1929,12.68811 -1.1929,10.33847 -1.1928,-8.92868 -1.1929,0.93986 -1.1929,-15.97762 -1.1929,-0.46993 -1.1929,21.61677 -1.1928,-16.91747 -1.1929,-18.7972 -1.1929,8.45874 -1.1929,23.49653 -1.1929,0.9398 -1.1929,-5.63913 -1.1928,5.16923 -1.1929,-76.5986 -1.1929,53.1021 -1.1929,14.0979 -1.1929,7.04895 -1.1928,12.21815 -1.1929,-14.09787 -1.1929,8.45877 -1.1929,2.3496 -1.1929,-0.9398 -1.1928,-3.7595 -1.1929,-11.74823 -1.1929,4.6993 -1.1929,-5.63916 -1.1929,-56.86154 -1.1928,61.09091 -2.3858,22.55662 -1.1929,-14.0979 -1.1929,-26.31606 -1.1929,30.54546 -1.1928,1.8797 -1.1929,-40.8839 -1.1929,22.55664 -1.1929,18.79716 -1.1929,-17.38737 -1.1928,12.68807 -1.1929,-18.79716 -1.1929,12.68811 -1.1929,-4.22937 -1.1929,-1.87972 -1.1928,11.74824 -1.1929,41.8238 -1.1929,-114.66295 -1.1929,-82.70769 -1.1929,12.68811 -1.1929,29.13566 -1.1928,84.11749 -1.1929,32.42518 -1.1929,-211.46854 -1.1929,164.94545 -1.1929,47.46299 -1.1928,-6.5791 -1.1929,-63.44053 -1.1929,53.57203 -1.1929,14.0979 -1.1929,-0.9399 -1.1928,-13.158 -1.1929,-10.33846 -1.1929,-7.04895 -1.1929,26.78601 -1.1929,4.2294 -1.1929,7.0489 -1.1928,-5.1692 -1.1929,-15.03777 -1.1929,12.68807 -1.1929,1.4098 -1.1929,-14.09787 -1.1928,8.92867 -1.1929,4.6993 -1.1929,12.2182 -1.1929,-14.0979 -1.1929,-20.20701 -1.1928,-6.57902 -1.1929,16.44755 -1.1929,-11.27832 -1.1929,27.2559 -1.1929,5.1693 -1.1929,-12.2182 -1.1928,54.9818 -1.1929,-62.97062 -1.1929,17.38742 -1.1929,-7.5189 -1.1929,-2.3496 -1.1928,13.6279 -1.1929,-16.44752 -1.1929,-19.73706 -1.1929,18.7972 -1.1929,-26.78601 -2.3857,26.78601 -1.1929,-16.44755 -1.1929,-90.69651 -1.1929,93.98602 -2.3857,-102.91469 -1.1929,80.82798 -1.1929,36.65454 -1.1929,9.39859 -1.1929,12.2182 -1.1928,-15.0378 -1.1929,-6.57899 -1.1929,-1.87972 -1.1929,-8.45874 -1.1929,19.26715 -1.1928,-8.92869 -1.1929,-7.04895 -1.1929,10.80844 -1.1929,-13.62802 -1.1929,6.10909 -1.1929,-5.16923 -1.1928,12.68816 -1.1929,-5.16928 -1.1929,-10.33846 -1.1929,-43.23357 -1.1929,9.86853 -1.1928,17.85735 -1.1929,14.0979 -1.1929,16.91753 -1.1929,32.8951 -1.1929,20.207 -1.1928,-73.30914 -1.1929,12.21818 -1.1929,-67.2 -1.1929,-155.07692 -1.1929,241.54408 -1.1929,11.7482 -1.1928,-16.9175 -1.1929,-45.58317 -1.1929,-7.51889 -1.1929,47.46296 -1.1929,28.1958 -1.1928,22.0867 -1.1929,-53.1021 -1.1929,18.7972 -1.1929,-19.2671 -1.1929,-1.40982 -1.1928,0.46993 -1.1929,20.67689 -1.1929,15.5077 -1.1929,-31.0154 -1.1929,1.4098 -1.1929,5.6392 h -1.1928 l -1.1929,-16.91749 -1.1929,-2.34965 -1.1929,32.42514 -1.1929,0.9399 -1.1928,-4.2294 -1.1929,-14.0979 -1.1929,-1.4098 -1.1929,6.1091 -1.1929,1.4098 -2.3857,4.6993 -1.1929,-4.2294 -1.1929,-25.84611 -1.1929,-32.8951 -2.3857,56.86151 -1.1929,1.4098 -1.1929,-26.786 -1.1929,-7.98881 -2.3857,61.56081 -1.1929,-33.365 -1.1929,-17.38742 -1.1929,20.20702 -1.1929,-11.27835 -1.1928,-13.15804 -1.1929,22.55669 -1.1929,-16.4476 -1.1929,-11.27832 -1.1929,0.93986 -1.1928,22.08676 -1.1929,-7.98886 -1.1929,-19.26713 -1.1929,23.96643 -1.1929,-0.46993 -1.1929,29.13569 -1.1928,-14.5679 -1.19292,-49.34261 -1.19288,19.73706 -1.19288,0.46993 -1.19288,47.93282 -1.19288,-49.34261 h -1.19288 l -1.19288,35.24471 -1.19288,30.0756 -1.19289,-96.3357 -1.19288,3.75944 -1.19288,16.44756 -1.19288,61.0909 -1.19288,-59.68111 -1.19288,-1.40979 -1.19288,28.1958 -1.19288,-11.27832 -1.19289,-36.18462 -1.19288,5.16923 -1.19288,-73.30909 -1.19288,62.03077 -1.19288,25.37623 -1.19288,-7.51888 -1.19288,78.94828 -1.19288,-15.0378 -1.19289,-39.47412 -1.19288,-1.87972 -1.19288,-35.71469 -1.19288,-21.61678 -1.19288,-103.85455 -1.19288,47.93287 -1.19288,100.09511 -1.19288,-51.22238 -1.19288,-0.93986 -1.19289,125.94122 -1.19288,-72.36919 -1.19288,63.91049 -1.19288,-42.76364 -1.19288,47.93284 -1.19288,-53.10207 -1.19288,-8.92867 -1.19288,10.33846 -1.19289,15.03778 -1.19288,45.1133 -1.19288,-7.049 -1.19288,-61.56082 -1.19288,46.52312 -1.19288,12.6881 -1.19288,5.1692 -1.19288,-83.17762 -1.19289,-3.75944 -1.19288,-40.88392 -1.19288,-54.51189 -1.19288,154.60697 -1.19288,-274.43914 -1.19288,59.68112 -1.19288,156.95665 -1.19288,0.46993 -1.19288,44.17344 -1.19289,-41.82379 -1.19288,56.39159 -1.19288,27.256 -1.19288,-233.08536 -1.19288,4.22938 -1.19288,122.18181 -1.19288,97.27557 -1.19288,7.0489 -1.19288,-14.5678 -1.19289,-85.5273 -1.19288,78.0084 -1.19288,32.8951 -1.19288,-0.4699 -1.19288,-0.9399 -1.19288,-8.9287 -1.19288,-4.2293 -1.19288,-102.91472 -1.19289,65.32032 -1.19288,-34.77486 -1.19288,-23.49651 -1.19288,74.24897 -1.19288,-19.2671 -1.19288,-91.63641 -1.19288,54.51189 -1.19288,-21.61679 -1.19289,-387.22238 -1.19288,478.38879 -1.19288,-50.75242 -1.19288,27.72592 -1.19288,45.5832 -1.19288,-15.9777 -1.19288,-97.74541 -1.19288,15.03777 -2.38577,46.05314 -1.19288,34.3049 -1.19288,-137.21958 -1.19288,23.96643 -1.19288,20.20699 -1.19288,75.65876 -1.19288,36.1846 -1.19288,-13.628 -1.19289,-2.8196 -1.19288,-60.62093 -1.19288,65.32023 -1.19288,-2.3496 -1.19288,-81.2979 -1.19288,35.24475 -1.19288,31.01535 -1.19288,-16.4475 -1.19288,-24.43638 -1.19289,16.44758 -1.19288,44.1734 -1.19288,4.2294 -1.19288,-7.049 -1.19288,-34.7748 -1.19288,46.5231 -1.19288,-7.9888 -1.19288,7.0489 -1.19289,-10.3385 -1.19288,-63.91044 -1.19288,48.40284 -1.19288,17.8573 -1.19288,-7.5189 -1.19288,-85.05733 -1.19288,66.73003 -1.19288,-4.6993 -1.19289,-22.5566 -1.19288,56.3916 -1.19288,-8.4587 h -1.19288 l -1.19288,-37.1245 -1.19288,41.8238 -1.19288,-2.8196 -1.19288,-13.1581 -1.19289,-113.72303 -1.19288,112.78323 -1.19288,-60.62099 -1.19288,-4.22937 -1.19288,13.62797 -1.19288,-36.18462 -1.19288,-8.45874 -1.19288,109.96365 -1.19289,-108.08393 -1.19288,104.79443 -1.19288,-12.6881 -1.19288,21.1468 -1.19288,-0.4699 -1.19288,-86.46714 -1.19288,23.02657 -1.19288,-4.6993 -1.19288,-23.96644 -1.19289,8.92868 -1.19288,-14.09791 -1.19288,-5.63916 -1.19288,10.33846 -1.19288,15.03777 -1.19288,-273.96923 -1.19288,181.86293 -2.38577,69.54965 -1.19288,-24.90629 -1.19288,-2.81958 -1.19288,46.99301 -1.19288,-17.85735 -1.19288,13.62798 -1.19288,-30.54546 -1.19288,3.28951 -1.19288,79.4182 -1.19289,-38.06435 -1.19288,76.59865 -1.19288,-78.47837 -1.19288,-16.91749 -1.19288,-7.04895 -1.19288,-12.68811 -1.19288,44.64336 -2.38576,-79.88811 -1.19289,86.93706 -1.19288,-10.33846 -1.19288,-2.81958 -1.19288,-8.45874 -1.19288,29.60559 -1.19288,-39.47412 -1.19288,48.40282 -1.19288,-29.60562 -1.19289,21.61682 -1.19288,-13.62801 -1.19288,-0.46993 -1.19288,20.67694 -1.19288,-16.44757 -1.19288,17.85737 -1.19288,-4.2294 -1.19288,-7.51888 -1.19289,-5.16923 -1.19288,-2.81958 -1.19288,-8.92867 -1.19288,19.26716 -1.19288,1.8797 -1.19288,2.3496 -2.38576,-24.43632 -1.19289,-30.07553 -1.19288,9.39861 -1.19288,28.66573 -1.19288,19.73711 -1.19288,-28.19585 -1.19288,33.36505 -1.19288,-30.07554 -1.19288,-4.6993 -1.19288,5.63916 -1.19289,-4.22937 -1.19288,30.07555 -2.38576,-18.79723 -1.19288,0.46993 -1.19288,4.22937 -1.19288,-16.91748 -1.19288,12.68811 -1.19288,25.8462 -1.19289,-23.49655 -1.19288,3.75944 -1.19288,-23.4965 -1.19288,2.81958 -1.19288,-45.11329 -1.19288,109.96362 -1.19288,-50.2825 -1.19289,-8.45874 -1.19288,18.79724 -1.19288,-21.61682 -1.19288,-9.3986 -1.19288,7.98881 -1.19288,-6.10909 -1.19288,7.98881 -1.19288,-13.62797 -1.19288,19.73706 -1.19289,-38.53427 -1.19288,1.87972 -1.19288,-13.15804 -1.19288,2.81958 -1.19288,52.16224 -1.19288,-7.04895 -1.19288,-7.98881 -1.19288,-17.85735 -1.19288,-30.54545 -1.19289,17.85734 -1.19288,-13.15804 -1.19288,10.33846 -1.19288,27.72588 h -1.19288 l -1.19288,-43.23357 -1.19288,-56.86154 -1.19288,27.72588 -1.19289,49.34265 -1.19288,-7.98881 -1.19288,-3.28951 -1.19288,0.46993 -1.19288,-7.98881 -1.19288,-15.50769 -1.19288,15.03776 -1.19288,-146.61818 -1.19289,117.01259 -1.19288,41.82377 -1.19288,-56.86154 -1.19288,21.14686 -1.19288,3.75944 -1.19288,-10.80839 -1.19288,-46.52308 -1.19288,103.38462 -1.19289,-41.35385 -1.19288,-1.87972 -1.19288,-54.04196 -1.19288,36.65455 -1.19288,7.51888 -1.19288,3.75944 -1.19288,44.64335 -1.19288,-22.55664 -1.19288,-36.18461 -1.19289,13.15804 -1.19288,-19.73707 -1.19288,29.6056 -2.38576,-29.6056 -1.19288,-6.10909 -1.19288,-15.03776 -1.19288,-67.2 -1.19288,97.74546 -1.19289,-13.62798 -1.19288,-0.46993 -1.19288,10.8084 -1.19288,-105.26434 -1.19288,9.3986 -1.19288,-121.71189 -1.19288,148.02798 -1.19288,-34.3049 -1.19289,24.90629 -1.19288,91.16644 -1.19288,-32.42518 -1.19288,27.72588 -1.19288,-34.77483 -1.19288,25.84615 -1.19288,-13.62797 -1.19288,-41.82377 -1.19289,23.02657 -1.19288,-1.40979 -1.19288,-37.59441 -1.19288,17.85735 -1.19288,-7.51888 -1.19288,21.61678 -1.19288,-125.47133 -1.19288,40.88392 -1.19289,-109.96364 -2.38576,167.2951 -1.19288,-22.55664 -2.38576,-93.04615 -1.19288,38.53426 -1.19288,32.42518 -1.19288,-33.36504 -1.19289,49.34266 -1.19288,7.98881 -1.19288,-34.30489 -1.19288,9.86853 -1.19288,-405.07972 -1.19288,470.4 -1.19288,24.90629 -1.19288,-34.30489 -1.19289,-192.2014 -1.19288,161.65594 -1.19288,67.2 -1.19288,54.04196 -1.19288,-43.7035 -1.19288,29.13567 -1.19288,-0.93986 -1.19288,2.81958 -1.19289,-13.62797 -1.19288,-54.51189 -1.19288,-67.66993 -1.19288,50.28251 -1.19288,1.87973 -1.19288,-30.07553 -1.19288,16.44755 -1.19288,66.26014 -1.19288,-67.66993 -1.19288,16.44756 -1.19289,-28.66574 -1.19288,-311.56364 -1.19288,119.36224 -1.19288,147.08811 -1.19288,-16.91748 -1.19288,13.15804 -1.19288,148.49791 -1.19288,-35.24476 -1.19289,-169.17482 -1.19288,-2.34965 -1.19288,173.87412 -1.19288,15.97762 -1.19288,-2.81958 -1.19288,7.51888 -1.19288,-2.81958 -1.19288,-56.86153 -1.19289,38.53426 -1.19288,84.11748 -1.19288,-75.18881 -1.19288,-151.31748 -1.19288,166.82518 -1.19288,-10.33847 -1.19288,2.34965 -1.19288,45.11329 -1.19289,-60.15105 -1.19288,-41.35384 -1.19288,7.51888 -1.19288,-48.4028 -1.19288,-73.77902 -1.19288,164.94545 -1.19288,4.22937 -1.19288,-18.7972 -1.19289,-6.57902 -1.19288,40.41399 -1.19288,-21.61679 -1.19288,-37.5944 -1.19288,58.74126 -1.19288,-18.32728 -1.19288,-122.18182 -1.19288,86.46714 -1.19288,-13.15804 -1.19289,-43.7035 -1.19288,128.76084 -1.19288,4.6993 -1.19288,39.00419 -1.19288,-23.4965 -1.19288,-14.56783 -1.19288,-2.34965 -1.19288,-23.4965 -1.19288,58.27132 -1.19289,37.12448 -1.19288,-64.85035 -1.19288,-4.6993 -1.19288,25.84615 -1.19288,-18.7972 -1.19288,6.10909 -1.19288,-13.15804 -1.19289,-9.86853 -1.19288,-135.33986 -1.19288,83.64755 -1.19288,-18.32727 -1.19288,115.6028 -1.19288,4.22937 -1.19288,-8.92868 -1.19288,-13.62797 -1.19288,-1.40979 -1.19289,-97.74545 -1.19288,85.9972 -1.19288,-43.7035 -1.19288,41.35385 -1.19288,12.68811 -1.19288,-60.15105 -1.19288,-20.67692 -1.19288,24.43636 -1.19289,-51.22237 -1.19288,48.87272 -1.19288,30.54546 -1.19288,26.78601 -1.19288,-32.8951 -1.19288,-66.73007 -1.19288,-53.57203 -1.19288,-8.92867 -1.19288,55.45174 -1.19289,20.207 -1.19288,4.22937 -1.19288,2.34965 -1.19288,-29.60559 -1.19288,4.6993 -1.19288,3.75944 -1.19288,66.73007 -1.19288,4.6993 -1.19288,-8.45874 -1.19289,-83.64756 -1.19288,78.47832 -1.19288,-136.27971 -1.19288,-81.29791 -1.19288,115.13287 -1.19288,72.36923 -1.19288,-87.40699 -1.19288,-1.40979 -1.19289,21.61678 -1.19288,82.70769 -1.19288,-48.40279 -1.19288,-87.407 -1.19288,-152.72727 -1.19288,301.6951 -1.19288,-36.18461 -1.19288,-28.66573 -1.19289,-184.21259 -1.19288,113.72308 -1.19288,56.86153 -1.19288,24.43637 -1.19288,-49.81259 L 454.54738,924 453.3545,956.42517 452.16162,946.08671 450.96873,959.71469 449.77585,924 l -1.19288,27.25594 -1.19288,41.35385 -1.19288,-40.41399 -1.19288,-17.85734 -1.19288,-27.25594 -1.19288,0.93986 -1.19289,37.12447 -1.19288,41.35385 -1.19288,-44.17343 -1.19288,-17.38741 -1.19288,25.84615 -1.19288,-42.76363 -1.19288,32.8951 -2.38576,23.49651 h -1.19289 l -1.19288,-35.24476 -1.19288,-40.88392 -1.19288,22.55665 -1.19288,9.86853 -1.19288,-18.7972 -1.19288,-29.6056 -1.19288,75.65874 -1.19289,-35.71468 -1.19288,-53.57203 -1.19288,43.23357 -1.19288,-24.43637 -1.19288,28.66574 -1.19288,-8.45874 -1.19288,-3.28951 -1.19288,41.82377 -1.19288,-10.33846 -1.19289,8.45874 -1.19288,-11.74825 -1.19288,11.74825 -1.19288,-45.58322 -1.19288,-70.48951 -1.19288,-96.33566 -1.19288,-141.44895 -1.19288,-120.3021 -1.19289,146.14825 -2.38576,176.69371 -1.19288,-85.52727 -1.19288,40.41398 -1.19288,-64.85035 -1.19288,-35.24475 -1.19288,50.28251 -1.19288,-44.17342 -1.19289,62.5007 -1.19288,-89.28672 -1.19288,-34.30489 -1.19288,44.17343 -1.19288,-96.8056 -1.19288,126.41119 -1.19288,-88.34685 -1.19288,6.57902 -1.19288,115.13286 -1.19289,-38.53426 -1.19288,-125.94126 -1.19288,328.01119 -1.19288,-89.75664 -1.19288,-227.44616 -1.19288,331.3007 -1.19288,49.34266 -1.19288,17.85734 -1.19289,-46.52308 -1.19288,52.16224 -1.19288,-49.81259 -1.19288,-10.80839 -1.19288,-29.60559 -1.19288,-57.33147 -1.19288,9.3986 -1.19288,121.24196 -1.19289,24.90629 -1.19288,-91.63636 -1.19288,2.34965 -1.19288,107.61399 -1.19288,15.97762 -1.19288,-71.8993 -1.19288,109.96364 -1.19288,-45.11329 -1.19289,7.98881 -1.19288,-3.75944 -1.19288,18.32727 -1.19288,1.87975 -1.19288,-24.90632 -1.19288,6.10909 -1.19288,-49.34266 -1.19288,57.8014 -1.19289,-54.98182 -1.19288,26.31609 -1.19288,47.46292 -1.19288,4.6993 -1.19288,0.9399 -1.19288,1.8797 -1.19288,-13.628 -1.19288,3.7595 -1.19288,-14.09794 -1.19289,-49.34266 -1.19288,15.97762 -1.19288,49.81258 -1.19288,-27.25593 -1.19288,-41.35385 -1.19288,23.02658 -1.19288,69.0797 -2.38577,-20.207 -1.19288,-2.3496 -1.19288,-7.9888 -1.19288,-8.92871 -1.19288,13.62801 -1.19288,4.2293 -1.19288,13.1581 -1.19288,-18.3273 -1.19289,24.9063 -1.19288,-24.9063 -1.19288,6.579 -1.19288,5.1693 -1.19288,20.6769 -1.19288,-14.5679 -1.19288,-12.6881 -1.19288,4.2294 -1.19288,-20.20699 -1.19289,13.62799 -1.19288,-15.97764 -1.19288,42.29374 -1.19288,-1.4098 -1.19288,-35.24478 -1.19288,-4.6993 -1.19288,16.91748 -1.19288,1.8797 -1.19289,-9.8685 -1.19288,28.6657 -1.19288,-4.2293 -1.19288,-19.2672 -1.19288,26.3161 -1.19288,-10.3385 -1.19288,0.47 -1.19288,15.0377 -1.19288,-3.2895 -1.19289,0.9399 -1.19288,-8.9287 -1.19288,-14.0979 -1.19288,3.7595 -1.19288,-10.8084 -1.19288,10.8084 -1.19288,-5.1693 -1.19288,10.3385 -1.19288,-11.7483 -1.19289,4.6993 -1.19288,-13.158 -1.19288,-3.75945 -1.19288,3.75945 -1.19288,11.2783 -1.19288,16.9175 -1.19288,-2.3497 -1.19288,3.7595 -1.19289,-0.9399 h -1.19288 l -1.19288,-2.3496 -2.38576,13.158 -1.19288,-4.6993 h -1.19288 l -1.19288,1.4098 -1.19289,-1.8797 -1.19288,6.1091 -1.19288,0.4699 -1.19288,-0.4699 -1.19288,-2.8196 -1.19288,-7.5189 -1.19288,-0.4699 -1.19288,7.0489 -1.19289,-10.8084 -1.19288,-2.3496 -1.19288,8.9287 -1.19288,-4.2294 -1.19288,8.9287 -1.19288,6.1091 -1.19288,3.2895 -1.19288,-8.4588 -1.19288,7.5189 -1.19289,-4.2294 -1.19288,0.9399 -1.19288,6.579 -1.19288,-0.4699 -1.19288,-4.2294 -1.19288,4.2294 -1.19288,-3.7595 -1.19288,-1.8797 -1.19289,1.4098 -1.19288,0.4699 -1.19288,-5.1692 -1.19288,3.2895 -1.19288,-4.2293 -1.19288,-11.2784 -1.19288,4.6993 -1.19288,6.5791 -1.19289,5.1692 -1.19288,-12.6881 -1.19288,8.9286 -1.19288,-6.579 -1.19288,0.47 -1.19288,4.6993 -1.19288,-0.47 -1.19288,10.3385 -1.19288,-8.4588 h -1.19289 l -1.19288,3.2896 -1.19288,9.3986 -1.19288,-5.1693 -1.19288,-10.8084 -1.19288,7.9888 h -1.19288 l -1.19288,6.1091 -1.19289,-1.4098 -1.19288,-0.4699 -1.19288,1.4098 -1.19288,-4.2294 -1.19288,-10.8084 -1.19288,14.0979 -1.19288,-8.4587 -1.19288,6.1091 -1.19289,-0.9399 -2.38576,-0.9398 -1.19288,-6.579 -1.19288,-0.9399 -1.19288,-1.4098 -1.19288,1.8797 -1.19288,8.9287 -1.19288,-10.8084 -1.19289,8.9287 -1.19288,-6.1091 -1.19288,5.1692 -1.19288,-5.6391 -1.19288,-15.9777 -1.19288,13.628 -1.19288,-7.0489 -1.19288,-3.7595 -2.38577,-27.2559 -1.19288,19.2671 -1.19288,21.6168 -1.19288,-6.579 -1.19288,2.8195 -1.19288,0.9399 -1.19288,-9.8685 -1.19288,-6.579 -1.19289,23.9664 -1.19288,1.4098 -1.19288,-4.6993 -1.19288,-1.8797 -1.19288,5.1692 -1.19288,-4.6993 -1.19288,0.9398 -1.19288,-6.579 -1.19289,10.8084 -1.19288,-21.6168 -1.19288,18.7972 -1.19288,4.2294 -1.19288,-7.0489 -1.19288,2.8195 -1.19288,1.4098 -1.19288,-4.2293 -1.19289,9.3986 -1.19288,0.4699 -1.19288,-2.3497 -1.19288,-1.8797 -1.19288,0.9399 -1.19288,-5.6392 -1.19288,4.6993 -1.19288,-9.3986 -1.19288,5.6392 -1.19289,2.3496 -1.19288,-7.9888 -1.19288,9.3986 -1.19288,2.8196 -1.19288,-1.4098 h -1.19288 l -1.19288,2.8196 -1.19288,-5.1692 -1.19288,-7.5189 h -1.19289 l -1.19288,6.1091 -1.19288,-4.6993 -1.19288,9.8685 -1.19288,-4.2294 -1.19288,-3.2895 -1.19288,-8.9287 -1.19289,10.8084 v 0"
           clip-path="url(#pf8cc7a9e7d)"
           style="fill:none;stroke:#000000;stroke-linecap:square"
           id="path2" />
      </g>
    </g>
  </g>
  <defs
     id="defs2">
    <clipPath
       id="pf8cc7a9e7d">
      <rect
         x="0"
         y="0"
         width="2232"
         height="1108.8"
         id="rect2" />
    </clipPath>
  </defs>
</svg>
