<?xml version="1.0" encoding="utf-8" standalone="no"?>
<!DOCTYPE svg PUBLIC "-//W3C//DTD SVG 1.1//EN"
  "http://www.w3.org/Graphics/SVG/1.1/DTD/svg11.dtd">
<svg xmlns:xlink="http://www.w3.org/1999/xlink" width="2232pt" height="1108.8pt" viewBox="0 0 2232 1108.8" xmlns="http://www.w3.org/2000/svg" version="1.1">
 <metadata>
  <rdf:RDF xmlns:dc="http://purl.org/dc/elements/1.1/" xmlns:cc="http://creativecommons.org/ns#" xmlns:rdf="http://www.w3.org/1999/02/22-rdf-syntax-ns#">
   <cc:Work>
    <dc:type rdf:resource="http://purl.org/dc/dcmitype/StillImage"/>
    <dc:date>2024-08-29T20:09:50.126037</dc:date>
    <dc:format>image/svg+xml</dc:format>
    <dc:creator>
     <cc:Agent>
      <dc:title>Matplotlib v3.9.2, https://matplotlib.org/</dc:title>
     </cc:Agent>
    </dc:creator>
   </cc:Work>
  </rdf:RDF>
 </metadata>
 <defs>
  <style type="text/css">*{stroke-linejoin: round; stroke-linecap: butt}</style>
 </defs>
 <g id="figure_1">
  <g id="patch_1">
   <path d="M 0 1108.8 
L 2232 1108.8 
L 2232 0 
L 0 0 
L 0 1108.8 
z
" style="fill: none"/>
  </g>
  <g id="axes_1">
   <g id="line2d_1">
    <path d="M 2130.545455 995.429371 
L 2129.352573 965.823776 
L 2128.159692 970.523077 
L 2126.966811 977.572028 
L 2125.77393 948.436364 
L 2124.581049 948.436364 
L 2123.388167 994.48951 
L 2122.195286 995.429371 
L 2121.002405 991.2 
L 2119.809524 964.883916 
L 2118.616643 993.07972 
L 2117.423761 974.282517 
L 2116.23088 998.248951 
L 2115.037999 975.692308 
L 2113.845118 988.38042 
L 2112.652237 978.511888 
L 2111.459355 1000.128671 
L 2110.266474 1015.166434 
L 2109.073593 1016.106294 
L 2107.880712 1009.527273 
L 2106.687831 1000.598601 
L 2105.494949 1009.527273 
L 2104.302068 1004.358042 
L 2103.109187 1007.177622 
L 2101.916306 990.26014 
L 2100.723425 1007.647552 
L 2099.530544 984.151049 
L 2098.337662 969.583217 
L 2097.144781 970.993007 
L 2095.9519 991.2 
L 2094.759019 988.85035 
L 2093.566138 987.440559 
L 2092.373256 975.222378 
L 2091.180375 991.66993 
L 2089.987494 999.658741 
L 2088.794613 999.658741 
L 2087.601732 995.899301 
L 2086.40885 994.01958 
L 2085.215969 1002.008392 
L 2084.023088 977.102098 
L 2082.830207 997.779021 
L 2081.637326 1002.948252 
L 2080.444444 986.030769 
L 2079.251563 977.572028 
L 2078.058682 991.2 
L 2076.865801 1011.406993 
L 2075.67292 1018.925874 
L 2074.480038 987.91049 
L 2073.287157 1007.647552 
L 2072.094276 991.66993 
L 2070.901395 991.2 
L 2069.708514 988.85035 
L 2068.515633 1003.888112 
L 2067.322751 1000.128671 
L 2066.12987 981.801399 
L 2064.936989 997.779021 
L 2063.744108 945.616783 
L 2062.551227 918.360839 
L 2061.358345 872.777622 
L 2060.165464 970.993007 
L 2058.972583 965.353846 
L 2057.779702 923.53007 
L 2056.586821 847.401399 
L 2055.393939 899.093706 
L 2054.201058 861.969231 
L 2053.008177 938.097902 
L 2051.815296 934.808392 
L 2050.622415 947.496503 
L 2049.429533 944.676923 
L 2048.236652 789.6 
L 2047.043771 882.646154 
L 2045.85089 936.688112 
L 2044.658009 926.34965 
L 2043.465127 968.173427 
L 2042.272246 963.944056 
L 2041.079365 926.81958 
L 2039.886484 901.913287 
L 2038.693603 963.004196 
L 2037.500722 913.661538 
L 2036.30784 945.146853 
L 2035.114959 957.365035 
L 2033.922078 938.097902 
L 2032.729197 945.146853 
L 2031.536316 915.541259 
L 2030.343434 945.146853 
L 2029.150553 931.048951 
L 2027.957672 937.627972 
L 2026.764791 969.113287 
L 2025.57191 970.523077 
L 2024.379028 942.327273 
L 2023.186147 870.427972 
L 2021.993266 869.488112 
L 2020.800385 948.436364 
L 2019.607504 918.830769 
L 2018.414622 928.229371 
L 2017.221741 912.721678 
L 2016.02886 926.34965 
L 2014.835979 885.465734 
L 2013.643098 821.555245 
L 2012.450216 837.532867 
L 2011.257335 803.227972 
L 2010.064454 801.818182 
L 2008.871573 861.969231 
L 2007.678692 904.732867 
L 2006.48581 895.334266 
L 2005.292929 897.213986 
L 2004.100048 947.966434 
L 2002.907167 926.81958 
L 2001.714286 920.240559 
L 2000.521405 956.425175 
L 1999.328523 930.109091 
L 1998.135642 923.06014 
L 1996.942761 920.71049 
L 1995.74988 904.732867 
L 1994.556999 880.296503 
L 1993.364117 906.612587 
L 1992.171236 947.966434 
L 1990.978355 907.552448 
L 1989.785474 963.474126 
L 1988.592593 929.639161 
L 1987.399711 937.627972 
L 1986.20683 953.135664 
L 1985.013949 931.518881 
L 1983.821068 932.458741 
L 1982.628187 949.376224 
L 1981.435305 924.46993 
L 1980.242424 925.87972 
L 1979.049543 928.699301 
L 1977.856662 918.830769 
L 1976.663781 925.40979 
L 1975.470899 927.28951 
L 1974.278018 932.928671 
L 1973.085137 951.725874 
L 1971.892256 910.841958 
L 1970.699375 913.191608 
L 1969.506494 933.868531 
L 1968.313612 939.507692 
L 1967.120731 950.316084 
L 1965.92785 924.46993 
L 1964.734969 937.158042 
L 1963.542088 939.037762 
L 1962.349206 924 
L 1961.156325 922.59021 
L 1959.963444 953.135664 
L 1958.770563 922.59021 
L 1957.577682 925.40979 
L 1956.3848 899.093706 
L 1955.191919 861.499301 
L 1953.999038 884.525874 
L 1952.806157 893.454545 
L 1951.613276 857.73986 
L 1950.420394 794.769231 
L 1949.227513 741.667133 
L 1948.034632 365.723077 
L 1946.841751 50.4 
L 1945.64887 878.416783 
L 1944.455988 862.909091 
L 1943.263107 895.334266 
L 1942.070226 921.18042 
L 1940.877345 874.657343 
L 1939.684464 849.281119 
L 1938.491582 867.608392 
L 1937.298701 864.788811 
L 1936.10582 852.570629 
L 1934.912939 856.8 
L 1933.720058 903.323077 
L 1932.527177 892.044755 
L 1931.334295 867.608392 
L 1930.141414 893.454545 
L 1928.948533 892.984615 
L 1927.755652 859.61958 
L 1926.562771 816.855944 
L 1925.369889 750.595804 
L 1924.177008 840.352448 
L 1922.984127 728.979021 
L 1921.791246 822.965035 
L 1920.598365 906.142657 
L 1919.405483 921.65035 
L 1918.212602 873.717483 
L 1917.019721 871.367832 
L 1915.82684 679.636364 
L 1914.633959 906.612587 
L 1913.441077 869.958042 
L 1912.248196 956.425175 
L 1911.055315 960.654545 
L 1909.862434 925.40979 
L 1908.669553 938.097902 
L 1907.476671 922.12028 
L 1906.28379 874.657343 
L 1905.090909 927.28951 
L 1903.898028 915.071329 
L 1902.705147 630.293706 
L 1901.512266 764.223776 
L 1900.319384 779.261538 
L 1899.126503 963.944056 
L 1897.933622 1008.117483 
L 1896.740741 1007.177622 
L 1895.54786 988.85035 
L 1894.354978 994.959441 
L 1893.162097 979.921678 
L 1891.969216 1007.177622 
L 1890.776335 973.342657 
L 1889.583454 982.271329 
L 1888.390572 986.970629 
L 1887.197691 990.26014 
L 1886.00481 1015.166434 
L 1884.811929 1020.805594 
L 1883.619048 1009.527273 
L 1882.426166 1012.346853 
L 1881.233285 1013.756643 
L 1880.040404 1020.335664 
L 1878.847523 1004.358042 
L 1877.654642 1016.106294 
L 1876.46176 1009.997203 
L 1875.268879 1010.937063 
L 1874.075998 1014.226573 
L 1872.883117 1031.144056 
L 1871.690236 1030.674126 
L 1870.497354 1006.237762 
L 1869.304473 998.718881 
L 1868.111592 988.38042 
L 1866.918711 1017.046154 
L 1865.72583 1017.046154 
L 1864.532949 1005.767832 
L 1863.340067 998.248951 
L 1862.147186 964.413986 
L 1860.954305 1000.128671 
L 1859.761424 1016.576224 
L 1858.568543 1009.527273 
L 1857.375661 1007.647552 
L 1856.18278 1006.707692 
L 1854.989899 1018.925874 
L 1853.797018 1011.406993 
L 1852.604137 1011.876923 
L 1851.411255 1004.358042 
L 1850.218374 1017.986014 
L 1849.025493 983.681119 
L 1847.832612 1008.587413 
L 1846.639731 1007.177622 
L 1845.446849 997.309091 
L 1844.253968 960.184615 
L 1843.061087 1015.636364 
L 1841.868206 1007.647552 
L 1840.675325 1013.286713 
L 1839.482443 998.718881 
L 1838.289562 1009.057343 
L 1837.096681 996.369231 
L 1835.9038 1012.346853 
L 1834.710919 996.839161 
L 1833.518038 999.658741 
L 1832.325156 999.188811 
L 1831.132275 970.053147 
L 1829.939394 992.60979 
L 1828.746513 986.970629 
L 1827.553632 1004.358042 
L 1826.36075 1016.106294 
L 1823.974988 966.763636 
L 1822.782107 944.676923 
L 1821.589226 998.718881 
L 1820.396344 987.440559 
L 1818.010582 1015.166434 
L 1816.817701 1000.598601 
L 1815.62482 1007.647552 
L 1814.431938 987.440559 
L 1813.239057 991.2 
L 1812.046176 938.097902 
L 1810.853295 936.688112 
L 1809.660414 950.316084 
L 1808.467532 975.222378 
L 1807.274651 925.40979 
L 1806.08177 908.492308 
L 1804.888889 987.91049 
L 1803.696008 982.741259 
L 1802.503127 1049.471329 
L 1801.310245 996.369231 
L 1800.117364 962.064336 
L 1798.924483 950.316084 
L 1797.731602 900.503497 
L 1796.538721 924 
L 1795.345839 939.507692 
L 1794.152958 809.337063 
L 1792.960077 880.296503 
L 1791.767196 993.54965 
L 1790.574315 933.398601 
L 1789.381433 956.895105 
L 1788.188552 916.011189 
L 1786.995671 905.672727 
L 1785.80279 936.688112 
L 1784.609909 914.601399 
L 1783.417027 946.086713 
L 1782.224146 860.08951 
L 1781.031265 921.18042 
L 1779.838384 926.34965 
L 1778.645503 951.255944 
L 1777.452621 924 
L 1776.25974 970.523077 
L 1775.066859 958.304895 
L 1773.873978 948.906294 
L 1772.681097 943.267133 
L 1771.488215 934.338462 
L 1770.295334 937.158042 
L 1769.102453 922.12028 
L 1767.909572 872.307692 
L 1766.716691 829.544056 
L 1765.52381 968.643357 
L 1764.330928 975.692308 
L 1763.138047 963.944056 
L 1761.945166 948.906294 
L 1760.752285 969.113287 
L 1759.559404 995.429371 
L 1758.366522 994.48951 
L 1757.173641 989.32028 
L 1755.98076 968.643357 
L 1754.787879 964.883916 
L 1753.594998 985.560839 
L 1752.402116 983.681119 
L 1751.209235 981.331469 
L 1750.016354 1008.117483 
L 1748.823473 968.643357 
L 1747.630592 978.041958 
L 1746.43771 962.064336 
L 1745.244829 951.725874 
L 1744.051948 991.66993 
L 1742.859067 1027.384615 
L 1741.666186 1035.843357 
L 1740.473304 1036.313287 
L 1739.280423 1031.613986 
L 1738.087542 1024.565035 
L 1736.894661 1027.384615 
L 1735.70178 1018.455944 
L 1734.508899 1018.925874 
L 1733.316017 1033.963636 
L 1732.123136 1034.903497 
L 1730.930255 1033.963636 
L 1729.737374 990.26014 
L 1728.544493 966.293706 
L 1727.351611 969.113287 
L 1726.15873 991.2 
L 1724.965849 1006.237762 
L 1723.772968 997.309091 
L 1722.580087 1011.406993 
L 1721.387205 1011.406993 
L 1720.194324 1005.767832 
L 1719.001443 1012.816783 
L 1717.808562 1016.106294 
L 1716.615681 1024.095105 
L 1715.422799 1015.166434 
L 1714.229918 1015.636364 
L 1713.037037 1000.598601 
L 1711.844156 962.064336 
L 1710.651275 1023.625175 
L 1709.458393 1026.444755 
L 1708.265512 1035.373427 
L 1707.072631 1023.155245 
L 1705.87975 1032.083916 
L 1704.686869 1010.467133 
L 1703.493987 997.309091 
L 1702.301106 1002.478322 
L 1701.108225 1010.937063 
L 1699.915344 1015.166434 
L 1698.722463 1015.166434 
L 1697.529582 1001.068531 
L 1696.3367 1009.527273 
L 1695.143819 1025.034965 
L 1693.950938 1016.106294 
L 1692.758057 1022.215385 
L 1691.565176 1022.215385 
L 1690.372294 1004.827972 
L 1689.179413 989.79021 
L 1686.793651 1028.324476 
L 1685.60077 1014.696503 
L 1684.407888 1019.395804 
L 1683.215007 1032.553846 
L 1682.022126 1020.805594 
L 1680.829245 1013.286713 
L 1679.636364 1008.587413 
L 1678.443482 1007.177622 
L 1677.250601 992.13986 
L 1676.05772 1025.034965 
L 1674.864839 1037.723077 
L 1673.671958 1036.313287 
L 1672.479076 1038.662937 
L 1671.286195 1038.193007 
L 1670.093314 1054.170629 
L 1668.900433 1035.843357 
L 1667.707552 1025.504895 
L 1666.514671 1036.313287 
L 1665.321789 1014.696503 
L 1664.128908 1010.467133 
L 1662.936027 1013.756643 
L 1661.743146 1035.373427 
L 1660.550265 1033.023776 
L 1659.357383 1028.324476 
L 1658.164502 1039.602797 
L 1656.971621 1037.253147 
L 1655.77874 1025.504895 
L 1654.585859 1036.313287 
L 1653.392977 1022.685315 
L 1652.200096 1012.346853 
L 1651.007215 1038.193007 
L 1649.814334 1042.892308 
L 1648.621453 1040.072727 
L 1647.428571 1028.794406 
L 1646.23569 1006.237762 
L 1645.042809 1000.128671 
L 1643.849928 1016.576224 
L 1642.657047 995.899301 
L 1641.464165 1013.286713 
L 1640.271284 985.560839 
L 1639.078403 974.282517 
L 1637.885522 1017.516084 
L 1636.692641 967.703497 
L 1635.499759 988.85035 
L 1634.306878 1012.816783 
L 1633.113997 919.770629 
L 1631.921116 904.732867 
L 1630.728235 1026.444755 
L 1629.535354 1037.723077 
L 1628.342472 1006.237762 
L 1627.149591 1009.997203 
L 1625.95671 1027.854545 
L 1624.763829 1008.117483 
L 1623.570948 1017.516084 
L 1622.378066 1014.226573 
L 1621.185185 996.369231 
L 1619.992304 1004.827972 
L 1618.799423 1003.888112 
L 1617.606542 1007.177622 
L 1616.41366 1018.455944 
L 1615.220779 993.07972 
L 1614.027898 972.872727 
L 1612.835017 997.779021 
L 1611.642136 949.376224 
L 1610.449254 972.402797 
L 1609.256373 989.79021 
L 1608.063492 970.523077 
L 1606.870611 903.793007 
L 1605.67773 994.48951 
L 1604.484848 1018.455944 
L 1603.291967 986.500699 
L 1602.099086 1006.237762 
L 1600.906205 998.248951 
L 1599.713324 993.54965 
L 1598.520443 1006.707692 
L 1597.327561 1011.406993 
L 1596.13468 1003.418182 
L 1594.941799 988.38042 
L 1593.748918 955.015385 
L 1592.556037 965.353846 
L 1591.363155 954.545455 
L 1590.170274 754.355245 
L 1588.977393 847.871329 
L 1587.784512 922.12028 
L 1586.591631 871.837762 
L 1585.398749 1011.406993 
L 1584.205868 996.369231 
L 1583.012987 923.53007 
L 1580.627225 994.959441 
L 1579.434343 994.959441 
L 1578.241462 1019.865734 
L 1577.048581 1015.166434 
L 1575.8557 1005.297902 
L 1574.662819 988.38042 
L 1573.469937 976.162238 
L 1572.277056 1011.406993 
L 1571.084175 1016.576224 
L 1569.891294 1018.455944 
L 1568.698413 1016.576224 
L 1567.505532 1017.516084 
L 1566.31265 1016.576224 
L 1565.119769 1006.707692 
L 1563.926888 983.681119 
L 1562.734007 976.162238 
L 1561.541126 962.064336 
L 1560.348244 999.188811 
L 1559.155363 1029.264336 
L 1557.962482 1028.324476 
L 1556.769601 1012.346853 
L 1555.57672 1033.023776 
L 1553.190957 1008.117483 
L 1551.998076 999.658741 
L 1550.805195 990.26014 
L 1549.612314 1005.297902 
L 1548.419432 995.899301 
L 1547.226551 1025.974825 
L 1546.03367 991.66993 
L 1544.840789 992.60979 
L 1543.647908 973.342657 
L 1542.455026 999.188811 
L 1541.262145 994.959441 
L 1540.069264 971.462937 
L 1538.876383 959.714685 
L 1537.683502 993.07972 
L 1536.49062 947.966434 
L 1535.297739 963.944056 
L 1534.104858 989.32028 
L 1532.911977 977.102098 
L 1531.719096 903.323077 
L 1530.526215 978.041958 
L 1529.333333 1003.888112 
L 1528.140452 961.124476 
L 1526.947571 991.66993 
L 1525.75469 1002.478322 
L 1524.561809 964.883916 
L 1523.368927 1007.177622 
L 1522.176046 983.211189 
L 1520.983165 1012.816783 
L 1519.790284 1017.516084 
L 1518.597403 1018.455944 
L 1517.404521 1010.467133 
L 1516.21164 975.692308 
L 1515.018759 1003.418182 
L 1513.825878 1002.008392 
L 1512.632997 1002.948252 
L 1511.440115 991.66993 
L 1510.247234 966.763636 
L 1509.054353 991.2 
L 1507.861472 1006.707692 
L 1505.475709 985.560839 
L 1504.282828 984.620979 
L 1503.089947 947.966434 
L 1501.897066 855.86014 
L 1500.704185 819.205594 
L 1499.511304 584.240559 
L 1498.318422 894.394406 
L 1497.125541 951.725874 
L 1495.93266 752.005594 
L 1494.739779 855.39021 
L 1493.546898 931.048951 
L 1492.354016 959.244755 
L 1491.161135 930.109091 
L 1489.968254 932.928671 
L 1488.775373 929.639161 
L 1487.582492 921.18042 
L 1486.38961 833.773427 
L 1485.196729 939.977622 
L 1484.003848 924 
L 1482.810967 943.737063 
L 1481.618086 894.864336 
L 1480.425204 808.397203 
L 1479.232323 963.944056 
L 1478.039442 923.06014 
L 1476.846561 746.836364 
L 1475.65368 928.699301 
L 1474.460798 935.278322 
L 1473.267917 894.864336 
L 1472.075036 926.34965 
L 1470.882155 895.804196 
L 1469.689274 883.586014 
L 1468.496392 975.692308 
L 1467.303511 954.545455 
L 1466.11063 959.714685 
L 1464.917749 940.917483 
L 1463.724868 928.229371 
L 1462.531987 958.304895 
L 1461.339105 883.586014 
L 1460.146224 947.496503 
L 1458.953343 944.206993 
L 1457.760462 955.955245 
L 1456.567581 946.556643 
L 1455.374699 847.871329 
L 1454.181818 853.98042 
L 1452.988937 419.765035 
L 1451.796056 654.26014 
L 1450.603175 744.016783 
L 1449.410293 863.848951 
L 1448.217412 921.18042 
L 1447.024531 896.744056 
L 1445.83165 907.552448 
L 1444.638769 927.759441 
L 1443.445887 867.608392 
L 1442.253006 892.044755 
L 1441.060125 889.225175 
L 1439.867244 842.232168 
L 1438.674363 896.274126 
L 1437.481481 896.274126 
L 1436.2886 759.994406 
L 1435.095719 676.346853 
L 1433.902838 834.243357 
L 1432.709957 649.090909 
L 1431.517076 899.563636 
L 1430.324194 891.574825 
L 1429.131313 848.811189 
L 1427.938432 542.416783 
L 1426.745551 774.562238 
L 1425.55267 939.977622 
L 1424.359788 898.623776 
L 1423.166907 806.987413 
L 1421.974026 829.544056 
L 1420.781145 843.172028 
L 1419.588264 785.840559 
L 1418.395382 870.427972 
L 1417.202501 638.752448 
L 1416.00962 826.254545 
L 1414.816739 832.833566 
L 1413.623858 891.574825 
L 1412.430976 931.518881 
L 1411.238095 981.331469 
L 1410.045214 989.32028 
L 1408.852333 994.959441 
L 1407.659452 983.211189 
L 1406.46657 977.572028 
L 1405.273689 924 
L 1404.080808 910.841958 
L 1402.887927 893.454545 
L 1400.502165 989.32028 
L 1399.309283 980.391608 
L 1398.116402 991.66993 
L 1396.923521 910.841958 
L 1395.73064 907.082517 
L 1394.537759 921.18042 
L 1393.344877 970.053147 
L 1392.151996 1002.478322 
L 1390.959115 986.970629 
L 1389.766234 912.721678 
L 1388.573353 943.267133 
L 1387.380471 900.503497 
L 1386.18759 873.247552 
L 1384.994709 746.366434 
L 1383.801828 913.191608 
L 1382.608947 987.440559 
L 1381.416065 813.096503 
L 1380.223184 953.135664 
L 1379.030303 1006.237762 
L 1377.837422 982.271329 
L 1376.644541 976.162238 
L 1375.451659 997.779021 
L 1374.258778 1010.937063 
L 1373.065897 1009.057343 
L 1371.873016 1007.647552 
L 1370.680135 1011.406993 
L 1369.487253 992.13986 
L 1368.294372 960.184615 
L 1367.101491 1005.297902 
L 1365.90861 1009.057343 
L 1364.715729 1007.177622 
L 1363.522848 1013.756643 
L 1362.329966 1017.986014 
L 1361.137085 1018.925874 
L 1359.944204 1000.128671 
L 1358.751323 1013.286713 
L 1357.558442 1020.335664 
L 1356.36556 1009.997203 
L 1355.172679 1009.527273 
L 1353.979798 1016.106294 
L 1352.786917 973.812587 
L 1351.594036 989.79021 
L 1350.401154 1016.576224 
L 1349.208273 1023.155245 
L 1348.015392 1015.166434 
L 1346.822511 1011.876923 
L 1345.62963 994.48951 
L 1344.436748 948.906294 
L 1343.243867 962.534266 
L 1342.050986 956.425175 
L 1339.665224 807.927273 
L 1338.472342 792.88951 
L 1337.279461 988.38042 
L 1336.08658 1002.008392 
L 1334.893699 1003.418182 
L 1333.700818 1013.286713 
L 1332.507937 1002.478322 
L 1331.315055 954.075524 
L 1330.122174 916.481119 
L 1328.929293 1007.647552 
L 1327.736412 1000.128671 
L 1326.543531 1008.117483 
L 1325.350649 1003.418182 
L 1324.157768 1003.888112 
L 1322.964887 953.135664 
L 1321.772006 943.737063 
L 1320.579125 918.360839 
L 1319.386243 757.644755 
L 1318.193362 978.511888 
L 1317.000481 987.91049 
L 1315.8076 999.188811 
L 1314.614719 997.309091 
L 1313.421837 985.090909 
L 1312.228956 983.211189 
L 1311.036075 997.779021 
L 1309.843194 974.282517 
L 1308.650313 989.32028 
L 1307.457431 996.369231 
L 1306.26455 976.632168 
L 1305.071669 968.173427 
L 1303.878788 1004.827972 
L 1302.685907 997.779021 
L 1301.493025 966.293706 
L 1300.300144 994.01958 
L 1299.107263 992.13986 
L 1297.914382 993.07972 
L 1296.721501 985.090909 
L 1295.52862 978.041958 
L 1294.335738 967.233566 
L 1293.142857 864.788811 
L 1291.949976 964.413986 
L 1289.564214 947.026573 
L 1288.371332 971.932867 
L 1287.178451 968.173427 
L 1285.98557 944.206993 
L 1284.792689 972.872727 
L 1283.599808 997.779021 
L 1282.406926 996.839161 
L 1281.214045 957.365035 
L 1280.021164 988.38042 
L 1278.828283 979.921678 
L 1277.635402 983.681119 
L 1276.44252 963.004196 
L 1275.249639 1000.128671 
L 1274.056758 946.556643 
L 1272.863877 963.944056 
L 1271.670996 958.774825 
L 1270.478114 869.488112 
L 1269.285233 978.511888 
L 1268.092352 1002.008392 
L 1266.899471 1019.865734 
L 1265.70659 1020.805594 
L 1264.513709 982.741259 
L 1263.320827 978.981818 
L 1262.127946 1016.106294 
L 1260.935065 973.812587 
L 1259.742184 970.993007 
L 1258.549303 1005.297902 
L 1257.356421 1021.745455 
L 1256.16354 1009.057343 
L 1254.970659 999.188811 
L 1253.777778 1006.707692 
L 1252.584897 988.38042 
L 1251.392015 994.01958 
L 1250.199134 1014.226573 
L 1249.006253 1015.166434 
L 1247.813372 992.13986 
L 1246.620491 1004.827972 
L 1245.427609 1003.418182 
L 1244.234728 986.500699 
L 1243.041847 995.429371 
L 1241.848966 1000.598601 
L 1240.656085 1017.516084 
L 1239.463203 984.620979 
L 1238.270322 989.32028 
L 1237.077441 965.823776 
L 1235.88456 894.394406 
L 1234.691679 963.004196 
L 1233.498797 999.658741 
L 1232.305916 986.030769 
L 1231.113035 984.151049 
L 1229.920154 965.353846 
L 1228.727273 983.211189 
L 1227.534392 995.429371 
L 1226.34151 978.981818 
L 1225.148629 994.01958 
L 1223.955748 967.703497 
L 1222.762867 959.714685 
L 1221.569986 988.38042 
L 1220.377104 983.681119 
L 1219.184223 996.369231 
L 1217.991342 1006.707692 
L 1216.798461 997.779021 
L 1215.60558 998.718881 
L 1214.412698 982.741259 
L 1213.219817 982.271329 
L 1212.026936 1003.888112 
L 1210.834055 986.970629 
L 1209.641174 968.173427 
L 1208.448292 976.632168 
L 1207.255411 1000.128671 
L 1206.06253 1001.068531 
L 1204.869649 995.429371 
L 1203.676768 1000.598601 
L 1202.483886 924 
L 1201.291005 977.102098 
L 1200.098124 991.2 
L 1198.905243 998.248951 
L 1197.712362 1010.467133 
L 1196.519481 996.369231 
L 1195.326599 1004.827972 
L 1194.133718 1007.177622 
L 1192.940837 1006.237762 
L 1191.747956 1002.478322 
L 1190.555075 990.73007 
L 1189.362193 995.429371 
L 1188.169312 989.79021 
L 1186.976431 932.928671 
L 1185.78355 994.01958 
L 1183.397787 1016.576224 
L 1182.204906 1002.478322 
L 1181.012025 976.162238 
L 1179.819144 1006.707692 
L 1178.626263 1008.587413 
L 1177.433381 967.703497 
L 1176.2405 990.26014 
L 1175.047619 1009.057343 
L 1173.854738 991.66993 
L 1172.661857 1004.358042 
L 1171.468975 985.560839 
L 1170.276094 998.248951 
L 1169.083213 994.01958 
L 1167.890332 992.13986 
L 1166.697451 1003.888112 
L 1165.50457 1045.711888 
L 1164.311688 931.048951 
L 1163.118807 848.341259 
L 1161.925926 861.029371 
L 1160.733045 890.165035 
L 1159.540164 974.282517 
L 1158.347282 1006.707692 
L 1157.154401 795.239161 
L 1155.96152 960.184615 
L 1154.768639 1007.647552 
L 1153.575758 1001.068531 
L 1152.382876 937.627972 
L 1151.189995 991.2 
L 1149.997114 1005.297902 
L 1148.804233 1004.358042 
L 1147.611352 991.2 
L 1146.41847 980.861538 
L 1145.225589 973.812587 
L 1144.032708 1000.598601 
L 1142.839827 1004.827972 
L 1141.646946 1011.876923 
L 1140.454064 1006.707692 
L 1139.261183 991.66993 
L 1138.068302 1004.358042 
L 1136.875421 1005.767832 
L 1135.68254 991.66993 
L 1134.489658 1000.598601 
L 1133.296777 1005.297902 
L 1132.103896 1017.516084 
L 1130.911015 1003.418182 
L 1129.718134 983.211189 
L 1128.525253 976.632168 
L 1127.332371 993.07972 
L 1126.13949 981.801399 
L 1124.946609 1009.057343 
L 1123.753728 1014.226573 
L 1122.560847 1002.008392 
L 1121.367965 1056.99021 
L 1120.175084 994.01958 
L 1118.982203 1011.406993 
L 1117.789322 1003.888112 
L 1116.596441 1001.538462 
L 1115.403559 1015.166434 
L 1114.210678 998.718881 
L 1113.017797 978.981818 
L 1111.824916 997.779021 
L 1110.632035 970.993007 
L 1108.246272 997.779021 
L 1107.053391 981.331469 
L 1105.86051 890.634965 
L 1104.667629 984.620979 
L 1102.281866 881.706294 
L 1101.088985 962.534266 
L 1099.896104 999.188811 
L 1098.703223 1008.587413 
L 1097.510342 1020.805594 
L 1096.31746 1005.767832 
L 1095.124579 999.188811 
L 1093.931698 997.309091 
L 1092.738817 988.85035 
L 1091.545936 1008.117483 
L 1090.353054 999.188811 
L 1089.160173 992.13986 
L 1087.967292 1002.948252 
L 1086.774411 989.32028 
L 1085.58153 995.429371 
L 1084.388648 990.26014 
L 1083.195767 1002.948252 
L 1082.002886 997.779021 
L 1080.810005 987.440559 
L 1079.617124 944.206993 
L 1078.424242 954.075524 
L 1077.231361 971.932867 
L 1076.03848 986.030769 
L 1074.845599 1002.948252 
L 1073.652718 1035.843357 
L 1072.459836 1056.05035 
L 1071.266955 982.741259 
L 1070.074074 994.959441 
L 1068.881193 927.759441 
L 1067.688312 772.682517 
L 1066.49543 1014.226573 
L 1065.302549 1025.974825 
L 1064.109668 1009.057343 
L 1062.916787 963.474126 
L 1061.723906 955.955245 
L 1060.531025 1003.418182 
L 1059.338143 1031.613986 
L 1058.145262 1053.700699 
L 1056.952381 1000.598601 
L 1055.7595 1019.395804 
L 1054.566619 1000.128671 
L 1053.373737 998.718881 
L 1052.180856 999.188811 
L 1050.987975 1019.865734 
L 1049.795094 1035.373427 
L 1048.602213 1004.358042 
L 1047.409331 1005.767832 
L 1046.21645 1011.406993 
L 1045.023569 1011.406993 
L 1043.830688 994.48951 
L 1042.637807 992.13986 
L 1041.444925 1024.565035 
L 1040.252044 1025.504895 
L 1039.059163 1021.275524 
L 1037.866282 1007.177622 
L 1036.673401 1005.767832 
L 1035.480519 1011.876923 
L 1034.287638 1013.286713 
L 1031.901876 1017.986014 
L 1030.708995 1013.756643 
L 1029.516114 987.91049 
L 1028.323232 955.015385 
L 1025.93747 1011.876923 
L 1024.744589 1013.286713 
L 1023.551708 986.500699 
L 1022.358826 978.511888 
L 1019.973064 1040.072727 
L 1018.780183 1006.707692 
L 1017.587302 989.32028 
L 1016.39442 1009.527273 
L 1015.201539 998.248951 
L 1014.008658 985.090909 
L 1012.815777 1007.647552 
L 1011.622896 991.2 
L 1010.430014 979.921678 
L 1009.237133 980.861538 
L 1008.044252 1002.948252 
L 1006.851371 994.959441 
L 1005.65849 975.692308 
L 1004.465608 999.658741 
L 1003.272727 999.188811 
L 1002.079846 1028.324476 
L 1000.886965 1013.756643 
L 999.694084 964.413986 
L 998.501203 984.151049 
L 997.308321 984.620979 
L 996.11544 1032.553846 
L 994.922559 983.211189 
L 993.729678 983.211189 
L 992.536797 1018.455944 
L 991.343915 1048.531469 
L 990.151034 952.195804 
L 988.958153 955.955245 
L 987.765272 972.402797 
L 986.572391 1033.493706 
L 985.379509 973.812587 
L 984.186628 972.402797 
L 982.993747 1000.598601 
L 981.800866 989.32028 
L 980.607985 953.135664 
L 979.415103 958.304895 
L 978.222222 884.995804 
L 977.029341 947.026573 
L 975.83646 972.402797 
L 974.643579 964.883916 
L 973.450697 1043.832168 
L 972.257816 1028.794406 
L 971.064935 989.32028 
L 969.872054 987.440559 
L 968.679173 951.725874 
L 967.486291 930.109091 
L 966.29341 826.254545 
L 965.100529 874.187413 
L 963.907648 974.282517 
L 962.714767 923.06014 
L 961.521886 922.12028 
L 960.329004 1048.061538 
L 959.136123 975.692308 
L 957.943242 1039.602797 
L 956.750361 996.839161 
L 955.55748 1044.772028 
L 954.364598 991.66993 
L 953.171717 982.741259 
L 951.978836 993.07972 
L 950.785955 1008.117483 
L 949.593074 1053.230769 
L 948.400192 1046.181818 
L 947.207311 984.620979 
L 946.01443 1031.144056 
L 944.821549 1043.832168 
L 943.628668 1049.001399 
L 942.435786 965.823776 
L 941.242905 962.064336 
L 940.050024 921.18042 
L 938.857143 866.668531 
L 937.664262 1021.275524 
L 936.47138 746.836364 
L 935.278499 806.517483 
L 934.085618 963.474126 
L 932.892737 963.944056 
L 931.699856 1008.117483 
L 930.506975 966.293706 
L 929.314093 1022.685315 
L 928.121212 1049.941259 
L 926.928331 816.855944 
L 925.73545 821.085315 
L 924.542569 943.267133 
L 923.349687 1040.542657 
L 922.156806 1047.591608 
L 920.963925 1033.023776 
L 919.771044 947.496503 
L 918.578163 1025.504895 
L 917.385281 1058.4 
L 916.1924 1057.93007 
L 914.999519 1056.99021 
L 913.806638 1048.061538 
L 912.613757 1043.832168 
L 911.420875 940.917483 
L 910.227994 1006.237762 
L 909.035113 971.462937 
L 907.842232 947.966434 
L 906.649351 1022.215385 
L 905.456469 1002.948252 
L 904.263588 911.311888 
L 903.070707 965.823776 
L 901.877826 944.206993 
L 900.684945 556.984615 
L 899.492063 1035.373427 
L 898.299182 984.620979 
L 897.106301 1012.346853 
L 895.91342 1057.93007 
L 894.720539 1041.952448 
L 893.527658 944.206993 
L 892.334776 959.244755 
L 889.949014 1005.297902 
L 888.756133 1039.602797 
L 887.563252 902.383217 
L 886.37037 926.34965 
L 885.177489 946.556643 
L 883.984608 1022.215385 
L 882.791727 1058.4 
L 881.598846 1044.772028 
L 880.405964 1041.952448 
L 879.213083 981.331469 
L 878.020202 1046.651748 
L 876.827321 1044.302098 
L 875.63444 963.004196 
L 874.441558 998.248951 
L 873.248677 1029.264336 
L 872.055796 1012.816783 
L 870.862915 988.38042 
L 869.670034 1004.827972 
L 868.477152 1049.001399 
L 867.284271 1053.230769 
L 866.09139 1046.181818 
L 864.898509 1011.406993 
L 863.705628 1057.93007 
L 862.512747 1049.941259 
L 861.319865 1056.99021 
L 860.126984 1046.651748 
L 858.934103 982.741259 
L 857.741222 1031.144056 
L 856.548341 1049.001399 
L 855.355459 1041.482517 
L 854.162578 956.425175 
L 852.969697 1023.155245 
L 851.776816 1018.455944 
L 850.583935 995.899301 
L 849.391053 1052.290909 
L 848.198172 1043.832168 
L 847.005291 1043.832168 
L 845.81241 1006.707692 
L 844.619529 1048.531469 
L 843.426647 1045.711888 
L 842.233766 1032.553846 
L 841.040885 918.830769 
L 839.848004 1031.613986 
L 838.655123 970.993007 
L 837.462241 966.763636 
L 836.26936 980.391608 
L 835.076479 944.206993 
L 833.883598 935.748252 
L 832.690717 1045.711888 
L 831.497835 937.627972 
L 830.304954 1042.422378 
L 829.112073 1029.734266 
L 827.919192 1050.881119 
L 826.726311 1050.411189 
L 825.53343 963.944056 
L 824.340548 986.970629 
L 823.147667 982.271329 
L 821.954786 958.304895 
L 820.761905 967.233566 
L 819.569024 953.135664 
L 818.376142 947.496503 
L 817.183261 957.834965 
L 815.99038 972.872727 
L 814.797499 698.903497 
L 813.604618 880.766434 
L 811.218855 950.316084 
L 810.025974 925.40979 
L 808.833093 922.59021 
L 807.640212 969.583217 
L 806.44733 951.725874 
L 805.254449 965.353846 
L 804.061568 934.808392 
L 802.868687 938.097902 
L 801.675806 1017.516084 
L 800.482924 979.451748 
L 799.290043 1056.05035 
L 798.097162 977.572028 
L 796.904281 960.654545 
L 795.7114 953.605594 
L 794.518519 940.917483 
L 793.325637 985.560839 
L 790.939875 905.672727 
L 789.746994 992.60979 
L 788.554113 982.271329 
L 787.361231 979.451748 
L 786.16835 970.993007 
L 784.975469 1000.598601 
L 783.782588 961.124476 
L 782.589707 1009.527273 
L 781.396825 979.921678 
L 780.203944 1001.538462 
L 779.011063 987.91049 
L 777.818182 987.440559 
L 776.625301 1008.117483 
L 775.432419 991.66993 
L 774.239538 1009.527273 
L 773.046657 1005.297902 
L 771.853776 997.779021 
L 770.660895 992.60979 
L 769.468013 989.79021 
L 768.275132 980.861538 
L 767.082251 1000.128671 
L 765.88937 1002.008392 
L 764.696489 1004.358042 
L 762.310726 979.921678 
L 761.117845 949.846154 
L 759.924964 959.244755 
L 758.732083 987.91049 
L 757.539202 1007.647552 
L 756.34632 979.451748 
L 755.153439 1012.816783 
L 753.960558 982.741259 
L 752.767677 978.041958 
L 751.574796 983.681119 
L 750.381914 979.451748 
L 749.189033 1009.527273 
L 746.803271 990.73007 
L 745.61039 991.2 
L 744.417508 995.429371 
L 743.224627 978.511888 
L 742.031746 991.2 
L 740.838865 1017.046154 
L 739.645984 993.54965 
L 738.453102 997.309091 
L 737.260221 973.812587 
L 736.06734 976.632168 
L 734.874459 931.518881 
L 733.681578 1041.482517 
L 732.488696 991.2 
L 731.295815 982.741259 
L 730.102934 1001.538462 
L 728.910053 979.921678 
L 727.717172 970.523077 
L 726.524291 978.511888 
L 725.331409 972.402797 
L 724.138528 980.391608 
L 722.945647 966.763636 
L 721.752766 986.500699 
L 720.559885 947.966434 
L 719.367003 949.846154 
L 718.174122 936.688112 
L 716.981241 939.507692 
L 715.78836 991.66993 
L 714.595479 984.620979 
L 713.402597 976.632168 
L 712.209716 958.774825 
L 711.016835 928.229371 
L 709.823954 946.086713 
L 708.631073 932.928671 
L 707.438191 943.267133 
L 706.24531 970.993007 
L 705.052429 970.993007 
L 703.859548 927.759441 
L 702.666667 870.897902 
L 701.473785 898.623776 
L 700.280904 947.966434 
L 699.088023 939.977622 
L 697.895142 936.688112 
L 696.702261 937.158042 
L 695.50938 929.169231 
L 694.316498 913.661538 
L 693.123617 928.699301 
L 691.930736 782.081119 
L 690.737855 899.093706 
L 689.544974 940.917483 
L 688.352092 884.055944 
L 687.159211 905.202797 
L 685.96633 908.962238 
L 684.773449 898.153846 
L 683.580568 851.630769 
L 682.387686 955.015385 
L 681.194805 913.661538 
L 680.001924 911.781818 
L 678.809043 857.73986 
L 677.616162 894.394406 
L 676.42328 901.913287 
L 675.230399 905.672727 
L 674.037518 950.316084 
L 672.844637 927.759441 
L 671.651756 891.574825 
L 670.458874 904.732867 
L 669.265993 884.995804 
L 668.073112 914.601399 
L 665.68735 884.995804 
L 664.494468 878.886713 
L 663.301587 863.848951 
L 662.108706 796.648951 
L 660.915825 894.394406 
L 659.722944 880.766434 
L 658.530063 880.296503 
L 657.337181 891.104895 
L 656.1443 785.840559 
L 654.951419 795.239161 
L 653.758538 673.527273 
L 652.565657 821.555245 
L 651.372775 787.25035 
L 650.179894 812.156643 
L 648.987013 903.323077 
L 647.794132 870.897902 
L 646.601251 898.623776 
L 645.408369 863.848951 
L 644.215488 889.695105 
L 643.022607 876.067133 
L 641.829726 834.243357 
L 640.636845 857.26993 
L 639.443963 855.86014 
L 638.251082 818.265734 
L 637.058201 836.123077 
L 635.86532 828.604196 
L 634.672439 850.220979 
L 633.479557 724.74965 
L 632.286676 765.633566 
L 631.093795 655.66993 
L 628.708033 822.965035 
L 627.515152 800.408392 
L 625.129389 707.362238 
L 623.936508 745.896503 
L 622.743627 778.321678 
L 621.550746 744.956643 
L 620.357864 794.299301 
L 619.164983 802.288112 
L 617.972102 767.983217 
L 616.779221 777.851748 
L 615.58634 372.772028 
L 614.393458 843.172028 
L 613.200577 868.078322 
L 612.007696 833.773427 
L 610.814815 641.572028 
L 609.621934 803.227972 
L 608.429052 870.427972 
L 607.236171 924.46993 
L 606.04329 880.766434 
L 604.850409 909.902098 
L 603.657528 908.962238 
L 602.464646 911.781818 
L 601.271765 898.153846 
L 600.078884 843.641958 
L 598.886003 775.972028 
L 597.693122 826.254545 
L 596.500241 828.134266 
L 595.307359 798.058741 
L 594.114478 814.506294 
L 592.921597 880.766434 
L 591.728716 813.096503 
L 590.535835 829.544056 
L 589.342953 800.878322 
L 588.150072 489.314685 
L 586.957191 608.676923 
L 585.76431 755.765035 
L 584.571429 738.847552 
L 583.378547 752.005594 
L 582.185666 900.503497 
L 580.992785 865.258741 
L 579.799904 696.083916 
L 578.607023 693.734266 
L 577.414141 867.608392 
L 576.22126 883.586014 
L 575.028379 880.766434 
L 573.835498 888.285315 
L 572.642617 885.465734 
L 571.449735 828.604196 
L 570.256854 867.138462 
L 569.063973 951.255944 
L 567.871092 876.067133 
L 566.678211 724.74965 
L 565.485329 891.574825 
L 564.292448 881.236364 
L 563.099567 883.586014 
L 561.906686 928.699301 
L 560.713805 868.548252 
L 559.520924 827.194406 
L 558.328042 834.713287 
L 557.135161 786.31049 
L 555.94228 712.531469 
L 554.749399 877.476923 
L 553.556518 881.706294 
L 552.363636 862.909091 
L 551.170755 856.33007 
L 549.977874 896.744056 
L 548.784993 875.127273 
L 547.592112 837.532867 
L 546.39923 896.274126 
L 545.206349 877.946853 
L 544.013468 755.765035 
L 542.820587 842.232168 
L 541.627706 829.074126 
L 540.434824 785.370629 
L 539.241943 914.131469 
L 538.049062 918.830769 
L 536.856181 957.834965 
L 535.6633 934.338462 
L 534.470418 919.770629 
L 533.277537 917.420979 
L 532.084656 893.924476 
L 530.891775 952.195804 
L 529.698894 989.32028 
L 528.506013 924.46993 
L 527.313131 919.770629 
L 526.12025 945.616783 
L 524.927369 926.81958 
L 523.734488 932.928671 
L 522.541607 919.770629 
L 521.348725 909.902098 
L 520.155844 774.562238 
L 518.962963 858.20979 
L 517.770082 839.882517 
L 516.577201 955.485315 
L 515.384319 959.714685 
L 514.191438 950.786014 
L 512.998557 937.158042 
L 511.805676 935.748252 
L 510.612795 838.002797 
L 509.419913 924 
L 508.227032 880.296503 
L 507.034151 921.65035 
L 505.84127 934.338462 
L 504.648389 874.187413 
L 503.455507 853.51049 
L 502.262626 877.946853 
L 501.069745 826.724476 
L 499.876864 875.597203 
L 498.683983 906.142657 
L 497.491101 932.928671 
L 496.29822 900.033566 
L 495.105339 833.303497 
L 493.912458 779.731469 
L 492.719577 770.802797 
L 491.526696 826.254545 
L 490.333814 846.461538 
L 489.140933 850.690909 
L 487.948052 853.040559 
L 486.755171 823.434965 
L 485.56229 828.134266 
L 484.369408 831.893706 
L 483.176527 898.623776 
L 481.983646 903.323077 
L 480.790765 894.864336 
L 479.597884 811.216783 
L 478.405002 889.695105 
L 477.212121 753.415385 
L 476.01924 672.117483 
L 474.826359 787.25035 
L 473.633478 859.61958 
L 472.440596 772.212587 
L 471.247715 770.802797 
L 470.054834 792.41958 
L 468.861953 875.127273 
L 467.669072 826.724476 
L 466.47619 739.317483 
L 465.283309 586.59021 
L 464.090428 888.285315 
L 462.897547 852.100699 
L 461.704666 823.434965 
L 460.511785 639.222378 
L 459.318903 752.945455 
L 458.126022 809.806993 
L 456.933141 834.243357 
L 455.74026 784.430769 
L 454.547379 924 
L 453.354497 956.425175 
L 452.161616 946.086713 
L 450.968735 959.714685 
L 449.775854 924 
L 448.582973 951.255944 
L 447.390091 992.60979 
L 446.19721 952.195804 
L 445.004329 934.338462 
L 443.811448 907.082517 
L 442.618567 908.022378 
L 441.425685 945.146853 
L 440.232804 986.500699 
L 439.039923 942.327273 
L 437.847042 924.93986 
L 436.654161 950.786014 
L 435.461279 908.022378 
L 434.268398 940.917483 
L 431.882636 964.413986 
L 430.689755 964.413986 
L 429.496873 929.169231 
L 428.303992 888.285315 
L 427.111111 910.841958 
L 425.91823 920.71049 
L 424.725349 901.913287 
L 423.532468 872.307692 
L 422.339586 947.966434 
L 421.146705 912.251748 
L 419.953824 858.67972 
L 418.760943 901.913287 
L 417.568062 877.476923 
L 416.37518 906.142657 
L 415.182299 897.683916 
L 413.989418 894.394406 
L 412.796537 936.218182 
L 411.603656 925.87972 
L 410.410774 934.338462 
L 409.217893 922.59021 
L 408.025012 934.338462 
L 406.832131 888.755245 
L 405.63925 818.265734 
L 404.446368 721.93007 
L 403.253487 580.481119 
L 402.060606 460.179021 
L 400.867725 606.327273 
L 398.481962 783.020979 
L 397.289081 697.493706 
L 396.0962 737.907692 
L 394.903319 673.057343 
L 393.710438 637.812587 
L 392.517557 688.095105 
L 391.324675 643.921678 
L 390.131794 706.422378 
L 388.938913 617.135664 
L 387.746032 582.830769 
L 386.553151 627.004196 
L 385.360269 530.198601 
L 384.167388 656.60979 
L 382.974507 568.262937 
L 381.781626 574.841958 
L 380.588745 689.974825 
L 379.395863 651.440559 
L 378.202982 525.499301 
L 377.010101 853.51049 
L 375.81722 763.753846 
L 374.624339 536.307692 
L 373.431457 867.608392 
L 372.238576 916.951049 
L 371.045695 934.808392 
L 369.852814 888.285315 
L 368.659933 940.447552 
L 367.467051 890.634965 
L 366.27417 879.826573 
L 365.081289 850.220979 
L 363.888408 792.88951 
L 362.695527 802.288112 
L 361.502646 923.53007 
L 360.309764 948.436364 
L 359.116883 856.8 
L 357.924002 859.14965 
L 356.731121 966.763636 
L 355.53824 982.741259 
L 354.345358 910.841958 
L 353.152477 1020.805594 
L 351.959596 975.692308 
L 350.766715 983.681119 
L 349.573834 979.921678 
L 348.380952 998.248951 
L 347.188071 1000.128671 
L 345.99519 975.222378 
L 344.802309 981.331469 
L 343.609428 931.988811 
L 342.416546 989.79021 
L 341.223665 934.808392 
L 340.030784 961.124476 
L 338.837903 1008.587413 
L 337.645022 1013.286713 
L 336.45214 1014.226573 
L 335.259259 1016.106294 
L 334.066378 1002.478322 
L 332.873497 1006.237762 
L 331.680616 992.13986 
L 330.487734 942.797203 
L 329.294853 958.774825 
L 328.101972 1008.587413 
L 326.909091 981.331469 
L 325.71621 939.977622 
L 324.523329 963.004196 
L 323.330447 1032.083916 
L 320.944685 1011.876923 
L 319.751804 1009.527273 
L 318.558923 1001.538462 
L 317.366041 992.60979 
L 316.17316 1006.237762 
L 314.980279 1010.467133 
L 313.787398 1023.625175 
L 312.594517 1005.297902 
L 311.401635 1030.204196 
L 310.208754 1005.297902 
L 309.015873 1011.876923 
L 307.822992 1017.046154 
L 306.630111 1037.723077 
L 305.437229 1023.155245 
L 304.244348 1010.467133 
L 303.051467 1014.696503 
L 301.858586 994.48951 
L 300.665705 1008.117483 
L 299.472823 992.13986 
L 298.279942 1034.433566 
L 297.087061 1033.023776 
L 295.89418 997.779021 
L 294.701299 993.07972 
L 293.508418 1009.997203 
L 292.315536 1011.876923 
L 291.122655 1002.008392 
L 289.929774 1030.674126 
L 288.736893 1026.444755 
L 287.544012 1007.177622 
L 286.35113 1033.493706 
L 285.158249 1023.155245 
L 283.965368 1023.625175 
L 282.772487 1038.662937 
L 281.579606 1035.373427 
L 280.386724 1036.313287 
L 279.193843 1027.384615 
L 278.000962 1013.286713 
L 276.808081 1017.046154 
L 275.6152 1006.237762 
L 274.422318 1017.046154 
L 273.229437 1011.876923 
L 272.036556 1022.215385 
L 270.843675 1010.467133 
L 269.650794 1015.166434 
L 268.457912 1002.008392 
L 267.265031 998.248951 
L 266.07215 1002.008392 
L 264.879269 1013.286713 
L 263.686388 1030.204196 
L 262.493506 1027.854545 
L 261.300625 1031.613986 
L 260.107744 1030.674126 
L 258.914863 1030.674126 
L 257.721982 1028.324476 
L 255.336219 1041.482517 
L 254.143338 1036.783217 
L 252.950457 1036.783217 
L 251.757576 1038.193007 
L 250.564695 1036.313287 
L 249.371813 1042.422378 
L 248.178932 1042.892308 
L 246.986051 1042.422378 
L 245.79317 1039.602797 
L 244.600289 1032.083916 
L 243.407407 1031.613986 
L 242.214526 1038.662937 
L 241.021645 1027.854545 
L 239.828764 1025.504895 
L 238.635883 1034.433566 
L 237.443001 1030.204196 
L 236.25012 1039.132867 
L 235.057239 1045.241958 
L 233.864358 1048.531469 
L 232.671477 1040.072727 
L 231.478595 1047.591608 
L 230.285714 1043.362238 
L 229.092833 1044.302098 
L 227.899952 1050.881119 
L 226.707071 1050.411189 
L 225.51419 1046.181818 
L 224.321308 1050.411189 
L 223.128427 1046.651748 
L 221.935546 1044.772028 
L 220.742665 1046.181818 
L 219.549784 1046.651748 
L 218.356902 1041.482517 
L 217.164021 1044.772028 
L 215.97114 1040.542657 
L 214.778259 1029.264336 
L 213.585378 1033.963636 
L 212.392496 1040.542657 
L 211.199615 1045.711888 
L 210.006734 1033.023776 
L 208.813853 1041.952448 
L 207.620972 1035.373427 
L 206.42809 1035.843357 
L 205.235209 1040.542657 
L 204.042328 1040.072727 
L 202.849447 1050.411189 
L 201.656566 1041.952448 
L 200.463684 1041.952448 
L 199.270803 1045.241958 
L 198.077922 1054.640559 
L 196.885041 1049.471329 
L 195.69216 1038.662937 
L 194.499278 1046.651748 
L 193.306397 1046.651748 
L 192.113516 1052.760839 
L 190.920635 1051.351049 
L 189.727754 1050.881119 
L 188.534873 1052.290909 
L 187.341991 1048.061538 
L 186.14911 1037.253147 
L 184.956229 1051.351049 
L 183.763348 1042.892308 
L 182.570467 1049.001399 
L 181.377585 1048.061538 
L 178.991823 1047.121678 
L 177.798942 1040.542657 
L 176.606061 1039.602797 
L 175.413179 1038.193007 
L 174.220298 1040.072727 
L 173.027417 1049.001399 
L 171.834536 1038.193007 
L 170.641655 1047.121678 
L 169.448773 1041.012587 
L 168.255892 1046.181818 
L 167.063011 1040.542657 
L 165.87013 1024.565035 
L 164.677249 1038.193007 
L 163.484367 1031.144056 
L 162.291486 1027.384615 
L 159.905724 1000.128671 
L 158.712843 1019.395804 
L 157.519962 1041.012587 
L 156.32708 1034.433566 
L 155.134199 1037.253147 
L 153.941318 1038.193007 
L 152.748437 1028.324476 
L 151.555556 1021.745455 
L 150.362674 1045.711888 
L 149.169793 1047.121678 
L 147.976912 1042.422378 
L 146.784031 1040.542657 
L 145.59115 1045.711888 
L 144.398268 1041.012587 
L 143.205387 1041.952448 
L 142.012506 1035.373427 
L 140.819625 1046.181818 
L 139.626744 1024.565035 
L 138.433862 1043.362238 
L 137.240981 1047.591608 
L 136.0481 1040.542657 
L 134.855219 1043.362238 
L 133.662338 1044.772028 
L 132.469456 1040.542657 
L 131.276575 1049.941259 
L 130.083694 1050.411189 
L 128.890813 1048.061538 
L 127.697932 1046.181818 
L 126.505051 1047.121678 
L 125.312169 1041.482517 
L 124.119288 1046.181818 
L 122.926407 1036.783217 
L 121.733526 1042.422378 
L 120.540645 1044.772028 
L 119.347763 1036.783217 
L 118.154882 1046.181818 
L 116.962001 1049.001399 
L 115.76912 1047.591608 
L 114.576239 1047.591608 
L 113.383357 1050.411189 
L 112.190476 1045.241958 
L 110.997595 1037.723077 
L 109.804714 1037.723077 
L 108.611833 1043.832168 
L 107.418951 1039.132867 
L 106.22607 1049.001399 
L 105.033189 1044.772028 
L 103.840308 1041.482517 
L 102.647427 1032.553846 
L 101.454545 1043.362238 
L 101.454545 1043.362238 
" clip-path="url(#pf8cc7a9e7d)" style="fill: none; stroke: #000000; stroke-linecap: square"/>
   </g>
  </g>
 </g>
 <defs>
  <clipPath id="pf8cc7a9e7d">
   <rect x="0" y="0" width="2232" height="1108.8"/>
  </clipPath>
 </defs>
</svg>
